<svg width="36" height="59" viewBox="0 0 36 59" fill="none" xmlns="http://www.w3.org/2000/svg">
<g clip-path="url(#clip0_0_523)">
<path d="M35.49 11.3901C35.48 10.6301 35.69 9.4901 35.47 8.7601C35.41 8.5501 35.34 8.3801 35.26 8.1801C35.15 7.8901 34.46 7.5401 34.24 7.3201C33.37 6.4201 32.8 5.5001 32.35 4.4101C33.11 4.2701 33.74 3.9801 34.06 3.4701C35.56 1.0201 32.06 0.320099 30.5 0.240099C26 9.91821e-05 21.48 -0.00990081 16.98 0.0900992C13.08 -0.0599008 9.13999 -0.00990082 5.23998 0.220099C3.65999 0.300099 0.879985 0.420099 1.30999 2.8501C1.48998 3.8601 2.14999 4.2601 2.93999 4.4101C2.42999 5.8701 1.66999 6.5301 0.739985 7.8001C0.459985 8.1801 0.249985 8.2501 0.0899851 8.6901C-0.120015 9.2801 0.089985 10.3501 0.079985 10.9601C0.069985 15.3201 0.069985 19.6801 0.079985 24.0401C0.089985 29.7301 0.109985 35.4101 0.159985 41.1001C0.189985 43.7801 0.199985 46.4601 0.269985 49.1501C0.329985 51.6701 2.31998 52.2501 3.24998 54.3501C2.45999 54.4901 1.81999 54.7701 1.48999 55.3001C-0.0100149 57.7501 3.48999 58.4501 5.04999 58.5301C9.54999 58.7701 14.07 58.7801 18.57 58.6801C22.48 58.8101 26.41 58.7501 30.32 58.5301C31.9 58.4401 34.68 58.3301 34.25 55.8901C34.05 54.7501 33.24 54.3901 32.33 54.2701C32.75 53.2401 33.41 52.5501 34.27 51.7401C34.11 51.8901 35.19 51.1201 35.3 50.8801C35.56 50.2601 35.42 49.4401 35.43 48.7701C35.48 46.2101 35.5 43.6501 35.52 41.0901C35.56 35.4001 35.56 29.7201 35.55 24.0301C35.54 19.8201 35.52 15.6001 35.49 11.3901ZM1.56999 41.5201C1.50999 35.6901 1.48999 29.8601 1.47999 24.0401C1.47999 22.3001 1.47999 20.5501 1.47999 18.8101C4.10999 18.6301 6.70998 18.6001 9.32998 18.7101C6.88998 20.8501 5.26999 23.9301 4.91999 27.6001C4.46999 32.3701 5.95998 37.9201 9.36998 41.3701C6.77998 41.5101 4.17999 41.4701 1.56999 41.5201ZM6.38999 27.1601C7.29998 20.0801 13.62 15.7401 20.62 17.2301C27.22 18.6301 29.54 24.5701 29.37 30.7201C28.86 37.5901 23.76 43.8601 16.34 43.2301C8.64998 42.5701 5.54998 33.7601 6.38999 27.1601ZM30.78 30.7201C30.9 26.1101 29.61 21.7301 26.67 18.8701C29.15 18.9101 31.67 18.9201 34.12 18.7201C34.13 20.4901 34.14 22.2601 34.14 24.0301C34.15 29.7201 34.15 35.4001 34.11 41.0901C34.11 41.1201 34.11 41.1501 34.11 41.1801C31.41 41.2201 28.7 41.1501 26 41.1701C28.77 38.5601 30.49 34.7601 30.78 30.7201ZM8.63999 1.4901C11.42 1.4201 14.21 1.3801 16.99 1.4701C19.98 1.4101 22.97 1.4201 25.96 1.4801C27.29 1.5101 29.25 1.1901 30.51 1.6201C31.35 1.9101 32.02 2.4401 31.18 2.9501C31 3.0601 30.35 2.9401 30.13 2.9401C24.92 2.8901 19.71 2.9801 14.49 3.0401C12.07 3.0701 9.65999 3.1001 7.24999 3.1101C6.66999 3.1101 3.64999 3.5401 3.20999 3.1001C1.54999 1.4201 7.92999 1.5101 8.63999 1.4901ZM3.02998 7.5401C3.73998 6.6401 4.07999 5.6101 4.36999 4.5301C4.54998 4.5301 4.71999 4.5301 4.88999 4.5301C8.21999 4.5501 11.55 4.4801 14.88 4.4401C18.89 4.3901 22.9 4.3501 26.91 4.3401C27.79 4.3401 29.4 4.5601 30.9 4.5401C31.31 5.6201 31.82 6.6101 32.57 7.5401C32.58 7.5601 33.15 8.1101 33.59 8.4701C27.84 8.8701 22.08 8.7701 16.32 8.9701C15.42 9.0001 15.42 10.4001 16.32 10.3701C22.27 10.1601 28.21 10.2801 34.15 9.8301C34.13 10.2501 34.07 10.6801 34.08 10.9701C34.09 13.0901 34.1 15.2201 34.11 17.3401C31.1 17.5801 28.01 17.5201 24.99 17.4601C24.95 17.4601 24.92 17.4801 24.88 17.4801C23.45 16.5701 21.74 15.9401 19.73 15.6901C16.51 15.2901 13.55 15.9601 11.13 17.4101C7.89998 17.2001 4.69999 17.2001 1.47999 17.4201C1.47999 15.3401 1.47999 13.2601 1.47999 11.1801C1.47999 10.9701 1.44999 10.6701 1.41999 10.3401C4.10999 10.0901 6.81999 10.2401 9.51999 10.2801C10.42 10.2901 10.42 8.8901 9.51999 8.8801C6.81999 8.8401 4.10999 8.6901 1.40999 8.9401C1.42999 8.8501 1.44999 8.7701 1.48999 8.7001C1.49999 8.6701 2.76998 7.8701 3.02998 7.5401ZM2.01998 50.1501C3.96999 50.3901 5.91998 50.5901 7.88999 50.5601C8.78998 50.5501 8.78998 49.1501 7.88999 49.1601C5.78999 49.1801 3.70999 48.9601 1.62999 48.7001C1.39999 46.8501 1.51999 44.8301 1.55999 42.9101C4.64998 42.8501 7.72999 42.9401 10.81 42.6701C10.83 42.6701 10.85 42.6601 10.87 42.6501C12.41 43.7501 14.23 44.4601 16.35 44.6101C19.45 44.8301 22.19 44.0001 24.42 42.4701C24.52 42.5301 24.63 42.5701 24.78 42.5701C27.9 42.5101 31.02 42.6201 34.15 42.5701C34.22 44.6601 34.39 46.9101 34.06 48.8901C27.14 49.2101 20.19 49.7601 13.27 49.4501C12.37 49.4101 12.37 50.8101 13.27 50.8501C20.02 51.1501 26.8 50.6301 33.54 50.3101C32.77 51.5901 31.39 52.6301 30.87 54.2101C30.81 54.2101 30.74 54.2101 30.67 54.2101C27.34 54.1901 24.01 54.2601 20.68 54.3001C16.67 54.3501 12.66 54.3901 8.64998 54.4001C7.77998 54.4001 6.19999 54.1801 4.71999 54.2001C4.08998 52.6401 2.69999 51.5401 2.01998 50.1501ZM26.93 57.2601C24.15 57.3301 21.36 57.3701 18.58 57.2801C15.59 57.3401 12.6 57.3301 9.60998 57.2701C8.27998 57.2401 6.31999 57.5601 5.05999 57.1301C4.21999 56.8401 3.54999 56.3101 4.38999 55.8001C4.56998 55.6901 5.21999 55.8101 5.43999 55.8101C10.65 55.8601 15.86 55.7701 21.08 55.7101C23.49 55.6801 25.9 55.6501 28.32 55.6401C28.9 55.6401 31.92 55.2101 32.36 55.6501C34.02 57.3301 27.64 57.2401 26.93 57.2601Z" fill="#E1A772"/>
</g>
<defs>
<clipPath id="clip0_0_523">
<rect width="35.57" height="58.75" fill="white"/>
</clipPath>
</defs>
</svg>
