<svg width="16" height="20" viewBox="0 0 16 20" fill="none" xmlns="http://www.w3.org/2000/svg">
<path d="M15.9996 17.2883L14.8544 4.39264C14.8299 4.10634 14.5886 3.88957 14.3064 3.88957H11.9506C11.9178 1.73824 10.1591 0 7.99963 0C5.84013 0 4.08143 1.73824 4.04871 3.88957H1.69289C1.40659 3.88957 1.16937 4.10634 1.14483 4.39264L-0.000365493 17.2883C-0.000365493 17.3047 -0.00445557 17.3211 -0.00445557 17.3374C-0.00445557 18.8057 1.34115 20 2.99759 20H13.0017C14.6581 20 16.0037 18.8057 16.0037 17.3374C16.0037 17.3211 16.0037 17.3047 15.9996 17.2883ZM7.99963 1.10429C9.54974 1.10429 10.8135 2.34765 10.8463 3.88957H5.15301C5.18573 2.34765 6.44953 1.10429 7.99963 1.10429ZM13.0017 18.8957H2.99759C1.95873 18.8957 1.1162 18.2086 1.09984 17.362L2.19595 4.99795H4.04462V6.67485C4.04462 6.9816 4.29002 7.22699 4.59677 7.22699C4.90352 7.22699 5.14892 6.9816 5.14892 6.67485V4.99795H10.8463V6.67485C10.8463 6.9816 11.0917 7.22699 11.3984 7.22699C11.7052 7.22699 11.9506 6.9816 11.9506 6.67485V4.99795H13.7992L14.8994 17.362C14.8831 18.2086 14.0364 18.8957 13.0017 18.8957Z" fill="#D1D1D1"/>
</svg>
