<svg width="54" height="48" viewBox="0 0 54 48" fill="none" xmlns="http://www.w3.org/2000/svg">
<path d="M48.5793 30.0952C49.0877 30.0952 49.5645 29.9012 49.9245 29.5501L53.4431 26.1067C54.185 25.3807 54.185 24.2 53.4431 23.4739C53.0843 23.1216 52.6063 22.9288 52.0979 22.9288C51.5895 22.9288 51.1115 23.1228 50.7527 23.4739L47.7912 26.3721H42.1004C41.9556 25.9353 41.7708 25.5152 41.5494 25.1141L43.9916 23.831C44.9549 23.3251 45.473 22.2384 45.2517 21.1898C45.2492 21.1756 45.2456 21.1613 45.2419 21.1482L43.5745 15.1303C44.3991 14.3281 45.0108 13.2712 45.3526 12.0214C45.8975 10.0337 45.6968 7.78655 44.787 5.69292C43.3069 2.28764 40.2274 0 37.1235 0C36.3256 0 35.5558 0.152351 34.8357 0.452291C34.4648 0.607022 34.2921 1.02599 34.4502 1.38901L35.6908 4.2444C35.7005 4.2801 35.7114 4.31581 35.726 4.35033L36.1919 5.42154C34.972 6.10117 34.0148 7.15572 33.459 8.44951C32.7985 9.98611 32.7949 11.6584 33.4456 13.1569C34.393 15.3386 36.5288 16.7741 38.9333 16.8705L39.9634 20.4186L37.762 21.5755C36.1432 20.7185 34.1242 20.1091 31.7976 19.7639L32.0676 19.3116C32.4337 18.6987 32.2208 17.9083 31.5945 17.5501C31.3938 17.4346 31.1639 17.3739 30.9316 17.3739C30.4646 17.3739 30.0292 17.6191 29.7944 18.0131L28.9187 19.4818C28.2948 19.4497 27.6575 19.4307 27.0019 19.4307C26.3476 19.4307 25.7091 19.4497 25.0851 19.4818L24.2094 18.0131C23.9747 17.6191 23.5381 17.3739 23.0722 17.3739C22.8399 17.3739 22.6101 17.4346 22.4094 17.5501C22.1053 17.7239 21.8888 18.0024 21.8 18.3345C21.71 18.6665 21.7587 19.0141 21.9363 19.3116L22.2063 19.7639C19.8796 20.1091 17.8606 20.7185 16.2418 21.5755L14.0404 20.4186L15.0706 16.8705C17.4751 16.7741 19.6096 15.3374 20.5583 13.1569C21.209 11.6584 21.2053 9.98611 20.5449 8.44951C19.9891 7.15572 19.0331 6.10117 17.812 5.42154L18.2778 4.35033C18.2936 4.31581 18.3046 4.2801 18.3131 4.2444L19.5536 1.3902C19.7118 1.02718 19.539 0.608213 19.1681 0.453481C18.4444 0.152351 17.6745 0 16.8767 0C13.7728 0 10.6921 2.28764 9.21314 5.69292C8.30339 7.78536 8.10271 10.0325 8.64759 12.0214C8.99057 13.2712 9.60112 14.3281 10.4257 15.1303L8.75826 21.1482C8.75462 21.1625 8.75097 21.1756 8.74854 21.1898C8.52596 22.2384 9.04408 23.3239 10.0086 23.831L12.4508 25.1141C12.2294 25.5152 12.0446 25.9353 11.8998 26.3721H6.2078L3.24746 23.4727C2.88867 23.1204 2.41069 22.9276 1.9023 22.9276C1.39391 22.9276 0.915925 23.1216 0.557133 23.4727C-0.184775 24.1988 -0.184775 25.3795 0.557133 26.1055L4.07573 29.5489C4.43573 29.9 4.9125 30.094 5.42089 30.094H11.5605C11.58 30.2607 11.6031 30.4273 11.6298 30.5951L5.64103 32.5483C5.34062 32.6459 5.06818 32.8185 4.85169 33.0446L1.56783 36.488C1.2212 36.851 1.03998 37.3259 1.05701 37.8223C1.07404 38.3186 1.28931 38.7792 1.66027 39.1196C2.01419 39.4422 2.47515 39.6207 2.958 39.6207C3.48342 39.6207 3.99059 39.4053 4.34938 39.0292L7.30242 35.9322L12.7767 34.1468C12.8497 34.2968 12.9239 34.4467 13.0017 34.5955L8.79962 37.9175C8.51137 38.1448 8.29974 38.4471 8.18541 38.7911L6.77822 43.0379C6.62132 43.5104 6.66268 44.0151 6.89376 44.4578C7.12485 44.9006 7.5177 45.2291 8.00054 45.3827C8.19149 45.4434 8.38853 45.4743 8.58677 45.4743H8.58799C9.41504 45.4743 10.1423 44.9566 10.3978 44.1865L11.631 40.4658L15.1302 37.6997C15.281 37.8746 15.4354 38.046 15.5948 38.2162L13.5527 41.3477C13.2146 41.8655 13.1599 42.5118 13.4043 43.0772L15.0462 46.8645C15.3454 47.5537 16.0326 48 16.7988 48C17.0543 48 17.3048 47.95 17.542 47.8512C18.0102 47.6572 18.3727 47.2966 18.5624 46.8348C18.7534 46.3741 18.7485 45.8671 18.5502 45.41L17.2999 42.5249L18.4894 40.7003C21.0715 42.4618 24.01 43.4081 27.0019 43.4081C29.9939 43.4081 32.9323 42.4618 35.5144 40.7003L36.7051 42.5249L35.4548 45.41C35.2566 45.8683 35.2517 46.3741 35.4426 46.8348C35.6336 47.2954 35.996 47.6572 36.4631 47.8512C36.7002 47.95 36.9496 48 37.205 48C37.97 48 38.6584 47.5548 38.9576 46.8645L40.5995 43.0772C40.844 42.5118 40.7893 41.8655 40.4524 41.3477L38.4103 38.2162C38.5696 38.0472 38.7241 37.8746 38.8749 37.7009L42.374 40.467L43.6073 44.1877C43.8627 44.9577 44.59 45.4755 45.4158 45.4755C45.4158 45.4755 45.4171 45.4755 45.4183 45.4755C45.6165 45.4755 45.8148 45.4446 46.0045 45.385C46.4874 45.2315 46.8814 44.903 47.1125 44.4602C47.3436 44.0175 47.3837 43.5128 47.2281 43.0403L45.8209 38.7935C45.7065 38.4495 45.4937 38.1472 45.2067 37.9199L41.0045 34.5979C41.0824 34.4491 41.1578 34.2991 41.2295 34.1492L46.7038 35.9345L49.6569 39.0315C50.0157 39.4077 50.5229 39.6231 51.0483 39.6231C51.5311 39.6231 51.9921 39.4457 52.346 39.122C53.1122 38.4209 53.1548 37.2414 52.4384 36.4904L49.1546 33.047C48.9381 32.8209 48.6656 32.6495 48.3652 32.5507L42.3765 30.5975C42.4032 30.4297 42.4263 30.263 42.4458 30.0964H48.5793V30.0952ZM48.0819 34.0194L51.3657 37.4628C51.5323 37.6378 51.5226 37.9127 51.3438 38.0758C51.2611 38.1508 51.1541 38.1924 51.0422 38.1924C50.9181 38.1924 50.8026 38.1436 50.7175 38.0544L47.6367 34.824C47.554 34.7372 47.4494 34.6717 47.3339 34.6336L41.7817 32.8221C41.8814 32.5471 41.9714 32.2722 42.0517 31.996L47.897 33.9028C47.9687 33.9266 48.032 33.9671 48.0819 34.0194ZM44.427 39.2315L45.8342 43.4783C45.8707 43.589 45.861 43.7056 45.8075 43.8092C45.754 43.9127 45.6615 43.9889 45.5484 44.0246C45.5046 44.0389 45.4584 44.046 45.4134 44.046H45.4122C45.22 44.046 45.051 43.9258 44.9914 43.7461L43.6912 39.8242C43.6474 39.6921 43.5659 39.5767 43.4553 39.4886L39.7652 36.5725C39.9379 36.3345 40.1045 36.094 40.2614 35.85L44.2823 39.028C44.3504 39.0815 44.4003 39.1518 44.427 39.2315ZM40.9717 30.0952C40.968 30.1214 40.9644 30.1488 40.9607 30.175C40.9279 30.4083 40.8878 30.6439 40.8367 30.8796C40.7856 31.1164 40.726 31.3545 40.6567 31.5925C40.5861 31.8401 40.5059 32.0877 40.4159 32.3341C40.3332 32.5626 40.2419 32.7911 40.1434 33.0196C40.0498 33.2375 39.9488 33.4541 39.8418 33.6707C39.8406 33.6743 39.8394 33.6767 39.8369 33.6802C39.7287 33.8968 39.6144 34.1123 39.4927 34.3265C39.3748 34.536 39.2495 34.7431 39.1194 34.949C38.9637 35.1942 38.8007 35.4358 38.628 35.6751C38.4881 35.8691 38.3434 36.0607 38.1938 36.25C38.0454 36.4368 37.8922 36.6213 37.7328 36.8046C37.6854 36.8594 37.638 36.9141 37.5893 36.9689C37.4239 37.1533 37.2536 37.3354 37.0785 37.5128C37.0286 37.564 36.9788 37.6152 36.9277 37.6663C36.8036 37.7901 36.6771 37.9103 36.5494 38.0282C36.3305 38.2317 36.1091 38.4281 35.8817 38.6173C35.6944 38.7733 35.5047 38.9244 35.3125 39.0708C35.1191 39.2184 34.9221 39.36 34.7239 39.4957C32.3741 41.1121 29.7056 41.981 26.9971 41.981C24.2885 41.981 21.6213 41.1121 19.2703 39.4957C19.072 39.3589 18.8762 39.2172 18.6816 39.0708C18.4894 38.9244 18.2997 38.7733 18.1124 38.6173C17.8862 38.4281 17.6636 38.2317 17.4459 38.0282C17.3182 37.9091 17.1917 37.7889 17.0676 37.6663C17.0166 37.6152 16.9667 37.564 16.9168 37.5128C16.7417 37.3343 16.5714 37.1533 16.406 36.9689C16.3574 36.9141 16.3099 36.8594 16.2625 36.8046C16.1044 36.6225 15.9499 36.438 15.8027 36.2511C15.6531 36.0619 15.5072 35.8703 15.3685 35.6763C15.1958 35.437 15.0329 35.1942 14.8772 34.9502C14.747 34.7443 14.6218 34.5372 14.5038 34.3277C14.3822 34.1135 14.2678 33.898 14.1596 33.6814C14.1584 33.6778 14.1572 33.6755 14.1547 33.6719C14.0477 33.4553 13.9468 33.2386 13.8531 33.0208C13.7546 32.7923 13.6634 32.5638 13.5807 32.3353C13.4907 32.0877 13.4116 31.8401 13.3399 31.5937C13.2717 31.3557 13.2109 31.1176 13.1599 30.8808C13.1088 30.6451 13.0686 30.4106 13.0358 30.1762C13.0321 30.15 13.0285 30.1226 13.0248 30.0964C12.9932 29.8572 12.9725 29.6179 12.9604 29.3823C12.9531 29.2442 12.9494 29.1061 12.9494 28.9704C12.9494 28.8693 12.9519 28.7681 12.9555 28.6681C12.9665 28.3718 12.9957 28.0825 13.0407 27.8004C13.0808 27.5564 13.1319 27.3184 13.1976 27.0863C13.2669 26.8411 13.3496 26.6031 13.4469 26.3721C13.5308 26.1722 13.6245 25.9782 13.7291 25.7889C13.8446 25.5794 13.9735 25.3771 14.1146 25.1807C14.2557 24.9843 14.4089 24.7951 14.5743 24.6118C15.0402 24.0964 15.6045 23.631 16.2674 23.2144C16.468 23.0883 16.6772 22.9669 16.8962 22.849C16.9326 22.83 16.9716 22.8121 17.008 22.7931C17.2671 22.6586 17.5371 22.5301 17.8193 22.4086C19.2703 21.7862 21.0156 21.3458 22.9956 21.0982C23.2559 21.0661 23.5198 21.0363 23.7874 21.0101C24.134 20.9768 24.4879 20.9482 24.8467 20.9256C25.0961 20.9101 25.3478 20.8982 25.6032 20.8875C26.0593 20.8697 26.5227 20.8601 26.9958 20.8601C27.469 20.8601 27.9323 20.8697 28.3884 20.8875C28.6438 20.897 28.8956 20.9101 29.1449 20.9256C29.5049 20.9482 29.8577 20.9768 30.2043 21.0101C30.4731 21.0363 30.737 21.0661 30.9961 21.0982C32.9761 21.3458 34.7214 21.7862 36.1724 22.4086C36.4546 22.5301 36.7234 22.6586 36.9836 22.7931C37.0201 22.8121 37.059 22.83 37.0955 22.849C37.3144 22.9657 37.5236 23.0883 37.7243 23.2144C38.3872 23.631 38.9515 24.0964 39.4173 24.6118C39.5827 24.7951 39.736 24.9855 39.8771 25.1807C40.0182 25.3771 40.1471 25.5794 40.2626 25.7889C40.3672 25.9782 40.4609 26.1734 40.5448 26.3721C40.6421 26.6031 40.726 26.8411 40.7941 27.0863C40.8598 27.3184 40.9109 27.5564 40.951 27.8004C40.996 28.0813 41.0252 28.3706 41.0362 28.6681C41.0398 28.7681 41.0422 28.8681 41.0422 28.9704C41.0422 29.1073 41.0374 29.2442 41.0313 29.3823C41.024 29.6167 41.0033 29.8548 40.9717 30.0952ZM39.2531 42.5189L37.6112 46.3063C37.5419 46.467 37.3813 46.5705 37.2026 46.5705C37.1442 46.5705 37.0858 46.5586 37.0298 46.536C36.9204 46.4908 36.8365 46.4063 36.7915 46.2991C36.7465 46.192 36.7477 46.0742 36.7939 45.9671L38.195 42.7356C38.2887 42.5189 38.268 42.2702 38.1378 42.0726L36.6747 39.829C36.9034 39.6433 37.1284 39.4505 37.3485 39.2505L39.2167 42.1143C39.2969 42.2369 39.3103 42.388 39.2531 42.5189ZM15.8599 42.0738C15.731 42.2726 15.7091 42.5201 15.8027 42.7368L17.2039 45.9683C17.2501 46.0754 17.2513 46.192 17.2063 46.3003C17.1625 46.4075 17.0774 46.492 16.9679 46.5372C16.912 46.5598 16.8548 46.5717 16.7952 46.5717C16.6164 46.5717 16.4559 46.4682 16.3865 46.3075L14.7446 42.5201C14.6875 42.3892 14.7008 42.238 14.7787 42.1178L16.6468 39.2541C16.8682 39.4541 17.0932 39.6457 17.3206 39.8314L15.8599 42.0738ZM10.3078 39.8242L9.00759 43.7461C8.948 43.9258 8.77894 44.046 8.58556 44.046C8.54056 44.046 8.49434 44.0389 8.44934 44.0246C8.33623 43.9889 8.24501 43.9127 8.19149 43.8092C8.13798 43.7056 8.12825 43.589 8.16474 43.4783L9.57193 39.2315C9.59869 39.1518 9.64855 39.0803 9.71545 39.028L13.7364 35.85C13.8945 36.094 14.0599 36.3345 14.2326 36.5713L10.5425 39.4874C10.433 39.5755 10.3515 39.6921 10.3078 39.8242ZM6.36105 34.8252L3.2803 38.0555C3.19517 38.1448 3.08084 38.1936 2.95557 38.1936C2.84367 38.1936 2.73543 38.152 2.65394 38.077C2.56758 37.9972 2.51772 37.8901 2.51285 37.7746C2.5092 37.6592 2.55056 37.5485 2.63205 37.464L5.9159 34.0206C5.96577 33.9683 6.03023 33.9278 6.09956 33.9052L11.9448 31.9984C12.0251 32.2734 12.1151 32.5495 12.2148 32.8244L6.66268 34.636C6.54835 34.6729 6.44497 34.7383 6.36105 34.8252ZM5.41968 28.6669C5.3017 28.6669 5.18981 28.6217 5.10588 28.5396L1.58729 25.0962C1.41459 24.9272 1.41459 24.6523 1.58729 24.4832C1.67121 24.4011 1.78189 24.3559 1.90108 24.3559C2.01906 24.3559 2.13095 24.4011 2.21487 24.4832L5.38927 27.5898C5.5267 27.7243 5.71157 27.7992 5.90496 27.7992H11.569C11.5313 28.0825 11.507 28.3718 11.4972 28.6669H5.41968ZM10.174 21.4981L11.6809 16.0611C11.8682 16.1646 12.0616 16.2599 12.261 16.3432L12.3681 16.3884C12.7634 16.5527 13.1696 16.6753 13.5831 16.7574L12.4727 20.5816C12.379 20.9042 12.5274 21.247 12.829 21.4065L14.8298 22.4574C14.2289 22.9014 13.7072 23.3906 13.2657 23.9226L10.697 22.5729C10.3053 22.3646 10.0913 21.9254 10.174 21.4981ZM10.5559 6.25114C11.8098 3.366 14.3493 1.42829 16.8767 1.42829C17.2258 1.42829 17.5675 1.46638 17.8983 1.54255L16.1883 5.47748C16.1725 5.51319 16.1615 5.5489 16.153 5.58461L14.2241 10.023C14.066 10.386 14.2387 10.805 14.6096 10.9597C14.7033 10.999 14.7993 11.0169 14.8942 11.0169C15.1776 11.0169 15.4476 10.8538 15.5656 10.5824L17.2306 6.74985C19.2253 7.96271 20.1289 10.4836 19.2107 12.5987C18.549 14.121 17.1333 15.1696 15.4938 15.4005C15.2688 15.4327 15.0389 15.4493 14.8079 15.4493C14.7799 15.4493 14.7507 15.4481 14.7227 15.4469C14.4734 15.4422 14.2277 15.4196 13.9845 15.3767C13.6281 15.3148 13.2778 15.2148 12.9385 15.0744L12.8315 15.0292C12.5663 14.9185 12.3146 14.7828 12.0786 14.6233C11.8597 14.4757 11.6529 14.3091 11.4608 14.1222C11.2564 13.9234 11.0679 13.702 10.8976 13.4628C10.5303 12.9451 10.2445 12.3368 10.056 11.6513C9.59626 9.96945 9.77383 8.05197 10.5559 6.25114ZM41.1699 21.4041C41.4716 21.2458 41.6199 20.9018 41.5263 20.5792L40.4159 16.755C40.8294 16.6729 41.2356 16.5503 41.6309 16.386L41.7391 16.3408C41.9398 16.2575 42.132 16.1623 42.3193 16.0599L43.8262 21.4969C43.9089 21.9242 43.6949 22.3646 43.302 22.5705L40.7333 23.9203C40.2918 23.3882 39.77 22.899 39.1692 22.4551L41.1699 21.4041ZM34.7871 12.5963C33.8688 10.4824 34.7725 7.96032 36.7671 6.74747L38.4322 10.58C38.5502 10.8514 38.8202 11.0145 39.1035 11.0145C39.1984 11.0145 39.2957 10.9966 39.3881 10.9573C39.7591 10.8026 39.9318 10.3837 39.7737 10.0206L37.8447 5.58104C37.835 5.54533 37.8241 5.50962 37.8095 5.4751L36.1006 1.54136C36.4315 1.46519 36.7732 1.4271 37.1223 1.4271C39.6496 1.4271 42.1892 3.36481 43.4431 6.24995C44.2251 8.05078 44.4027 9.96826 43.9418 11.6489C43.7545 12.3333 43.4686 12.9415 43.1001 13.4604C42.9298 13.7009 42.7413 13.921 42.537 14.1198C42.3448 14.3055 42.1393 14.4733 41.9191 14.6209C41.6832 14.7792 41.4327 14.9161 41.1663 15.0268L41.058 15.072C40.7187 15.2136 40.3697 15.3136 40.0133 15.3743C39.77 15.416 39.5231 15.4398 39.275 15.4446C39.2471 15.4446 39.2179 15.4469 39.1899 15.4469C38.9576 15.4469 38.7277 15.4303 38.5027 15.3981C36.8644 15.1672 35.4487 14.1186 34.7871 12.5963ZM48.6097 27.5898L51.7841 24.4832C51.9519 24.319 52.2438 24.319 52.4105 24.4832C52.5832 24.6523 52.5832 24.9272 52.4105 25.0962L48.8931 28.5396C48.8092 28.6217 48.6985 28.6669 48.5793 28.6669H42.5017C42.492 28.3718 42.4677 28.0825 42.43 27.7992H48.094C48.2874 27.7992 48.4723 27.7243 48.6097 27.5898Z" fill="#E1A772"/>
</svg>
