<svg width="52" height="46" viewBox="0 0 52 46" fill="none" xmlns="http://www.w3.org/2000/svg">
<path d="M40.1622 8.37113C38.9731 8.37113 37.8088 8.54433 36.6859 8.89072C35.3434 3.73608 30.6075 0 25.1423 0C19.9837 0 15.3845 3.38557 13.8059 8.19381C13.1554 8.0866 12.5007 8.02887 11.8419 8.02887C5.31187 8.02887 0 13.3155 0 19.8103C0 24.7711 3.04127 29.1093 7.64876 30.833L8.69705 43.2124C8.72606 44.7546 9.99394 46 11.5519 46H39.7023C41.2602 46 42.5281 44.7546 42.5571 43.2124L43.5516 31.4392C48.4947 29.9629 51.9959 25.3485 51.9959 20.1526C52 13.6577 46.6881 8.37113 40.1622 8.37113ZM42.2422 29.4392C41.7574 29.5464 41.397 29.9546 41.3555 30.4495L40.2865 43.0598C40.2824 43.0928 40.2824 43.1217 40.2824 43.1546C40.2824 43.4639 40.0172 43.7278 39.7065 43.7278H35.3807V34.1608C35.3807 33.534 34.8711 33.0268 34.2413 33.0268C33.6115 33.0268 33.1018 33.534 33.1018 34.1608V43.732H27.1394V34.1608C27.1394 33.534 26.6298 33.0268 26 33.0268C25.3702 33.0268 24.8606 33.534 24.8606 34.1608V43.732H18.8982V34.1608C18.8982 33.534 18.3885 33.0268 17.7587 33.0268C17.1289 33.0268 16.6193 33.534 16.6193 34.1608V43.732H11.5519C11.2411 43.732 10.9759 43.468 10.9759 43.1588C10.9759 43.1258 10.9759 43.0969 10.9718 43.0639L9.85721 29.9052C9.81992 29.4433 9.50088 29.0515 9.05339 28.9155C5.00112 27.6907 2.27888 24.0289 2.27888 19.8103C2.27888 14.5649 6.56733 10.2969 11.8378 10.2969C12.6747 10.2969 13.5117 10.4082 14.3197 10.6227C14.618 10.7052 14.9412 10.6557 15.2064 10.499C15.4716 10.3381 15.6622 10.0784 15.7284 9.77732C16.7022 5.4268 20.6591 2.27217 25.1423 2.27217C29.9487 2.27217 34.0548 5.83918 34.697 10.5732C34.7468 10.9278 34.9581 11.2371 35.2688 11.4103C35.5796 11.5835 35.9608 11.6 36.2881 11.4557C37.5146 10.9155 38.8156 10.6392 40.1622 10.6392C45.4327 10.6392 49.7211 14.9072 49.7211 20.1526C49.7211 24.5773 46.5763 28.4825 42.2422 29.4392Z" fill="#E1A772"/>
</svg>
