<svg width="46" height="46" viewBox="0 0 46 46" fill="none" xmlns="http://www.w3.org/2000/svg">
<g clip-path="url(#clip0_3_11887)">
<path fill-rule="evenodd" clip-rule="evenodd" d="M26.536 23.831L32.4399 27.2396C33.0163 27.5724 33.2027 28.3284 32.8782 28.8905C32.5439 29.4694 31.8225 29.6787 31.2294 29.3363L25.2255 25.87C24.6108 26.3474 23.8386 26.6316 23 26.6316C20.9943 26.6316 19.3684 25.0057 19.3684 23C19.3684 21.4188 20.379 20.0736 21.7895 19.5751V8.48196C21.7895 7.80883 22.351 7.26316 23 7.26316C23.6686 7.26316 24.2105 7.82702 24.2105 8.48196V19.5751C25.621 20.0736 26.6316 21.4188 26.6316 23C26.6316 23.2859 26.5985 23.5641 26.536 23.831ZM23 46C35.7025 46 46 35.7025 46 23C46 10.2975 35.7025 0 23 0C10.2975 0 0 10.2975 0 23C0 35.7025 10.2975 46 23 46ZM23 43.5789C34.3654 43.5789 43.5789 34.3654 43.5789 23C43.5789 11.6346 34.3654 2.42105 23 2.42105C11.6346 2.42105 2.42105 11.6346 2.42105 23C2.42105 34.3654 11.6346 43.5789 23 43.5789Z" fill="#E1A772"/>
</g>
<defs>
<clipPath id="clip0_3_11887">
<rect width="46" height="46" fill="white"/>
</clipPath>
</defs>
</svg>
