<svg width="51" height="55" viewBox="0 0 51 55" fill="none" xmlns="http://www.w3.org/2000/svg">
<path d="M17.46 16.9999C17.32 17.3399 17.47 17.5999 17.71 17.7299C17.9 17.9299 18.19 18.0099 18.48 17.7899C20.04 16.6199 21.6 14.8299 21.41 12.7299C21.21 10.6199 15.7 6.01991 19.51 4.53991C20.21 4.26991 20.17 3.15991 19.32 3.15991C16.67 3.16991 13.95 4.06991 13.79 7.09991C13.57 11.1399 19.26 12.5799 17.46 16.9999ZM16.51 9.96991C14.63 7.76991 15.15 5.88991 16.94 5.04991C16.65 5.70991 16.6 6.49991 16.87 7.45991C17.15 8.45991 17.78 9.35991 18.4 10.1699C19.76 11.9599 20.18 13.5899 19.2 15.1199C19.18 14.1899 18.96 13.2599 18.53 12.4699C18 11.4799 17.23 10.8099 16.51 9.96991Z" fill="#E1A772"/>
<path d="M26.42 16.66C26.28 17 26.43 17.26 26.67 17.39C26.86 17.59 27.15 17.67 27.44 17.45C29.29 16.06 31.15 13.94 30.91 11.44C30.65 8.79 23.78 3.29 28.72 1.37C29.43 1.1 29.38 0 28.54 0C25.39 0.01 22.21 1.04 21.98 4.63C21.67 9.53 28.64 11.21 26.42 16.66ZM25.03 8.2C22.56 5.31 23.41 2.83 25.95 1.85C25.46 2.68 25.36 3.72 25.72 5.01C26.05 6.2 26.8 7.26 27.54 8.23C29.34 10.61 29.81 12.77 28.25 14.79C28.31 13.54 28.04 12.27 27.46 11.2C26.82 10.01 25.89 9.21 25.03 8.2Z" fill="#E1A772"/>
<path d="M48.03 24.4201C46.42 23.2801 44.69 23.1401 43.13 23.9301C43.12 21.8601 42.44 20.2801 40.61 19.8401C40.58 19.8301 40.55 19.8401 40.52 19.8401C40.49 19.8301 40.46 19.8201 40.43 19.8201C29.1 19.4401 17.34 18.8801 6.03001 19.8601C2.22001 20.1901 2.59001 22.5101 2.87001 25.9301C3.16001 29.5301 3.87001 33.1401 5.40001 36.4201C6.37001 38.5001 7.64001 40.2801 9.16001 41.7601C5.84001 42.1001 -0.0799909 43.2801 9.10956e-06 46.5501C0.0600091 49.0301 4.49001 49.9001 6.28001 50.1701C6.99001 50.2801 7.71001 50.3701 8.43001 50.4401C10.44 55.0301 18.02 54.1801 22.05 54.2401C25.62 54.2901 29.57 54.4401 33.08 53.7001C35.23 53.2501 36.25 51.7601 37.51 50.0801C40.18 49.7801 44.43 49.2301 45.46 47.1101C47.01 43.9201 38.65 42.5401 35.07 42.1501C35.41 41.8301 35.74 41.4901 36.06 41.1401C36.14 41.1601 36.21 41.1801 36.31 41.1801C41.85 40.9501 49.57 37.3301 50.23 31.1001C50.48 28.7701 50.04 25.8601 48.03 24.4201ZM42.2 29.6001C42.72 29.3901 43.54 29.0701 44.11 29.2701C44.86 29.5401 45.14 30.3201 45.01 31.0401C44.83 32.0201 43.95 32.9901 43.17 33.5501C42.32 34.1601 41.06 34.8401 39.93 35.0801C40.66 33.5101 41.46 31.5801 42.08 29.6201C42.12 29.6101 42.16 29.6201 42.2 29.6001ZM29.73 52.6401C27.6 52.8001 25.47 52.8601 23.33 52.8601C20.21 52.8601 12.37 53.6101 10.09 50.6001C13.61 50.8501 17.19 50.8001 20.67 50.8701C25.61 50.9601 30.56 50.9101 35.47 50.3201C33.93 51.9001 32.27 52.4501 29.73 52.6401ZM33.76 43.4401C36.09 43.5501 38.39 44.0301 40.61 44.7301C41.34 44.9601 43.1 45.3001 43.56 45.8801C44.58 47.1601 40.57 48.0601 39.72 48.2501C33.76 49.6001 27.41 49.5801 21.33 49.4801C18.46 49.4301 15.58 49.3501 12.71 49.2401C9.91001 49.1301 5.36001 49.4701 2.91001 47.7601C-0.389991 45.4701 4.51001 44.2301 6.32001 43.7601C7.70001 43.4101 9.13001 43.1201 10.56 43.0701C10.59 43.0701 10.61 43.0601 10.63 43.0501C13.52 45.3001 17.09 46.6101 21.03 46.9501C25.84 47.3601 30.13 46.0801 33.61 43.4001C33.65 43.4101 33.7 43.4401 33.76 43.4401ZM33.93 41.4001C27.82 47.2001 17.05 47.0301 10.78 41.4901C8.00001 39.0401 6.30001 35.6901 5.33001 32.1601C4.77001 30.1201 4.44001 28.0301 4.26001 25.9301C4.20001 25.2301 3.94001 23.8001 4.12001 23.1201C4.75001 20.7401 7.15001 21.2301 8.84001 21.1901C19.32 20.9301 29.81 20.8801 40.29 21.2201C43.2 22.0201 40.37 30.1301 39.78 31.8301C38.54 35.3601 36.66 38.8001 33.93 41.4001ZM46.39 35.4401C43.95 37.8901 40.65 39.3601 37.24 39.7101C37.65 39.1701 38.05 38.6001 38.42 38.0001C38.63 37.6501 38.91 37.1601 39.21 36.5701C39.23 36.5701 39.24 36.5801 39.26 36.5801C41.8 36.5001 44.95 34.5401 46.05 32.2601C46.57 31.1801 46.61 29.8601 45.86 28.8601C45.04 27.7701 43.74 27.7001 42.54 28.0201C42.75 27.2201 42.91 26.4201 43.01 25.6701C45.68 23.4101 48.49 26.1801 48.79 28.9501C49.08 31.6201 48.24 33.5701 46.39 35.4401Z" fill="#E1A772"/>
<path d="M7.22999 24.93C7.15999 24.04 5.75999 24.03 5.82999 24.93C6.11999 28.51 7.20999 31.86 9.11999 34.9C9.59999 35.66 10.81 34.96 10.33 34.19C8.54999 31.36 7.49999 28.27 7.22999 24.93Z" fill="#E1A772"/>
<path d="M11.13 36.52C10.23 36.52 10.23 37.92 11.13 37.92C12.03 37.92 12.03 36.52 11.13 36.52Z" fill="#E1A772"/>
</svg>
