<svg width="43" height="46" viewBox="0 0 43 46" fill="none" xmlns="http://www.w3.org/2000/svg">
<g clip-path="url(#clip0_1_1248)">
<path d="M29.4805 1.89056C29.4805 1.38374 29.0769 0.973626 28.5781 0.973626C28.0793 0.973626 27.6757 1.38374 27.6757 1.89056V12.1502C27.6101 14.8043 25.6674 16.9616 23.3311 16.9616C20.9947 16.9616 19.0488 14.8043 18.9864 12.1469C18.9864 12.1469 18.9864 12.1469 18.9864 12.1435V1.88056C18.9864 1.37374 18.5828 0.963623 18.084 0.963623C17.5853 0.963623 17.1816 1.37374 17.1816 1.88056V12.1435C17.1816 12.1502 17.1816 12.1535 17.1816 12.1602C17.2473 15.4812 19.5279 18.2286 22.4319 18.7121V24.5838C21.3261 24.8439 20.4959 25.8508 20.4959 27.0545V43.0358C20.4959 44.4362 21.6181 45.5766 22.9931 45.5766H23.6723C25.0505 45.5766 26.1695 44.4362 26.1695 43.0358V27.0579C26.1695 25.8542 25.3393 24.8472 24.2335 24.5871V18.7154C27.1343 18.2353 29.4149 15.4845 29.4838 12.1635C29.4838 12.1569 29.4838 12.1535 29.4838 12.1469V1.89056H29.4805ZM24.3647 43.0358C24.3647 43.4259 24.053 43.7427 23.6723 43.7427H22.9931C22.6091 43.7427 22.3007 43.4259 22.3007 43.0358V27.0579C22.3007 26.6677 22.6124 26.3543 22.9931 26.3543H23.6723C24.0563 26.3543 24.3647 26.6711 24.3647 27.0579V43.0358Z" fill="#E1A772"/>
<path d="M21.546 13.0605C22.0447 13.0605 22.4483 12.6503 22.4483 12.1435V1.88056C22.4483 1.37374 22.0447 0.963623 21.546 0.963623C21.0472 0.963623 20.6436 1.37374 20.6436 1.88056V12.1435C20.6436 12.6503 21.0472 13.0605 21.546 13.0605Z" fill="#E1A772"/>
<path d="M25.0669 13.0605C25.5657 13.0605 25.9693 12.6503 25.9693 12.1435V1.88056C25.9693 1.37374 25.5657 0.963623 25.0669 0.963623C24.5682 0.963623 24.1646 1.37374 24.1646 1.88056V12.1435C24.1646 12.6503 24.5682 13.0605 25.0669 13.0605Z" fill="#E1A772"/>
<path d="M42.1139 25.5441V0.916991C42.1139 0.59023 41.9433 0.290143 41.6677 0.123428C41.392 -0.0399529 41.0475 -0.0432872 40.7686 0.116759C40.5749 0.226791 36.0302 2.9209 36.0302 9.90626V22.0998C36.0302 22.6066 36.4338 23.0167 36.9325 23.0167H40.3091V24.944H39.8235C38.4453 24.944 37.3263 26.0843 37.3263 27.4814V43.4627C37.3263 44.8631 38.4486 46.0034 39.8235 46.0034H40.5028C41.881 46.0034 42.9999 44.8631 42.9999 43.4627V27.4814C42.9999 26.7045 42.6554 26.0109 42.1139 25.5441ZM37.8349 21.1829V9.90626C37.8349 6.31189 39.2099 4.08458 40.3091 2.87422V21.1829H37.8349ZM41.1951 43.4627C41.1951 43.8528 40.8834 44.1695 40.5028 44.1695H39.8235C39.4396 44.1695 39.1311 43.8528 39.1311 43.4627V27.4814C39.1311 27.0912 39.4428 26.7778 39.8235 26.7778H40.5028C40.8867 26.7778 41.1951 27.0946 41.1951 27.4814V43.4627Z" fill="#E1A772"/>
<path d="M6.36267 0.383545C2.80559 0.383545 0.0196425 4.67812 0.0196425 10.1597C0.0196425 10.3498 0.016361 10.5432 0.00979814 10.7365C-4.61789e-05 11.2067 -0.0131719 11.6902 0.0360497 12.167C0.0294868 12.2103 0.0294868 12.257 0.0294868 12.3003C0.0951156 15.5579 2.4315 18.2554 5.40777 18.7189V24.5839C4.30192 24.844 3.47172 25.8509 3.47172 27.0546V43.0359C3.47172 44.4363 4.59397 45.5766 5.96889 45.5766H6.64815C8.02636 45.5766 9.14533 44.4363 9.14533 43.0359V27.0579C9.14533 25.8543 8.31513 24.8473 7.20928 24.5872V18.7189C10.1855 18.2487 12.5252 15.5079 12.604 12.197C12.6204 11.9602 12.7057 10.5965 12.7057 10.1597C12.7024 4.67812 9.91647 0.383545 6.36267 0.383545ZM7.34054 43.0359C7.34054 43.426 7.0288 43.7428 6.64815 43.7428H5.96889C5.58497 43.7428 5.27651 43.426 5.27651 43.0359V27.0579C5.27651 26.6678 5.58825 26.3544 5.96889 26.3544H6.64815C7.03208 26.3544 7.34054 26.6712 7.34054 27.0579V43.0359ZM10.8025 12.0969L10.7992 12.137C10.7467 14.7977 8.73187 16.9617 6.30688 16.9617C3.94753 16.9617 1.97538 14.9478 1.83756 12.4404C1.85725 12.337 1.86053 12.2303 1.84741 12.1203C1.79162 11.7268 1.80146 11.2667 1.81459 10.7799C1.82115 10.5698 1.82443 10.3631 1.82443 10.1564C1.82443 5.8518 3.90159 2.21408 6.36267 2.21408C8.82375 2.21408 10.9009 5.8518 10.9009 10.1564C10.8976 10.4931 10.8287 11.6701 10.8025 12.0969Z" fill="#E1A772"/>
</g>
<defs>
<clipPath id="clip0_1_1248">
<rect width="43" height="46" fill="white"/>
</clipPath>
</defs>
</svg>
