<svg width="36" height="46" viewBox="0 0 36 46" fill="none" xmlns="http://www.w3.org/2000/svg">
<g clip-path="url(#clip0_1_1265)">
<path d="M5.03976 19.4173C2.70917 20.9222 2.76832 24.4181 2.77128 24.5565L2.93099 42.1654C2.93395 42.6102 3.29773 42.9665 3.74433 42.9665C3.74729 42.9665 3.75025 42.9665 3.7532 42.9665C4.20276 42.9636 4.56359 42.5954 4.56063 42.1478L4.40092 24.5271C4.40092 24.5006 4.37726 21.7763 5.93 20.775C6.30562 20.5305 6.41505 20.0298 6.16957 19.6558C5.92409 19.2818 5.41834 19.1758 5.03976 19.4173Z" fill="#E1A772"/>
<path d="M14.794 17.0818C12.5787 15.6504 12.2149 15.0349 12.2149 12.6906V0.809911C12.2149 0.362251 11.8511 0 11.4016 0H10.0618H7.51528H6.17548C5.72593 0 5.36214 0.362251 5.36214 0.809911V12.6906C5.36214 15.0349 5.00131 15.6504 2.78311 17.0818C-0.0414061 18.9077 -0.00295717 22.9426 4.34346e-07 23.1075L0.201118 45.1989C0.201118 45.2284 0.207033 45.2578 0.209991 45.2873C0.212948 45.3108 0.212948 45.3344 0.218863 45.358C0.224779 45.3904 0.236609 45.4198 0.248439 45.4493C0.254355 45.4699 0.26027 45.4905 0.269143 45.5111C0.280973 45.5406 0.298719 45.57 0.316464 45.5995C0.325337 45.6171 0.33421 45.6348 0.343083 45.6495C0.360829 45.679 0.384489 45.7025 0.40815 45.7261C0.419981 45.7408 0.428854 45.7556 0.443642 45.7673C0.467302 45.7909 0.493921 45.8115 0.523497 45.8321C0.538285 45.8439 0.550115 45.8557 0.564903 45.8675C0.59448 45.8851 0.624056 45.8999 0.653632 45.9175C0.66842 45.9264 0.683208 45.9352 0.700953 45.944C0.736445 45.9588 0.774894 45.9676 0.810385 45.9794C0.825173 45.9823 0.837003 45.9882 0.851791 45.9912C0.905028 46.0029 0.958265 46.0088 1.01446 46.0088C1.01742 46.0088 1.02038 46.0088 1.02038 46.0088H16.6957C17.1453 46.0088 17.509 45.6466 17.509 45.1989C17.509 45.196 17.509 45.1901 17.509 45.1871C17.509 45.1842 17.509 45.1783 17.509 45.1754L17.5771 23.1252C17.58 22.9426 17.6214 18.9077 14.794 17.0818ZM6.98883 4.71221H10.5912V9.50099H6.98883V4.71221ZM10.0618 1.61982H10.5882V3.09239H6.98883V1.61982H7.51528H10.0618ZM15.9504 23.0987L15.8853 44.3802H1.82189L1.62668 23.0869C1.62668 23.0545 1.60598 19.7736 3.66743 18.4395C6.3352 16.7166 6.98587 15.5886 6.98587 12.6876V11.1179H10.5882V12.6876C10.5882 15.5856 11.2389 16.7166 13.9067 18.4395C15.974 19.7736 15.9533 23.0545 15.9504 23.0987Z" fill="#E1A772"/>
<path d="M36 21.0637C36 20.9812 35.9823 20.9017 35.9586 20.8251C35.9615 20.8045 35.9645 20.7839 35.9645 20.7633C35.9645 20.3156 35.6007 19.9534 35.1512 19.9534H19.4699C19.0204 19.9534 18.6566 20.3156 18.6566 20.7633C18.6566 20.7839 18.6625 20.8045 18.6625 20.8251C18.6388 20.9017 18.6241 20.9783 18.6241 21.0637C18.6241 32.3583 22.7322 35.3328 26.5002 35.6833V44.3803H23.6283C23.1788 44.3803 22.815 44.7425 22.815 45.1902C22.815 45.6379 23.1788 46.0001 23.6283 46.0001H31.0016C31.4512 46.0001 31.815 45.6379 31.815 45.1902C31.815 44.7425 31.4512 44.3803 31.0016 44.3803H28.1298V35.6892C36 35.0413 36 24.9454 36 21.0637ZM23.2675 23.5788C23.2675 23.1312 22.9037 22.7689 22.4542 22.7689C22.0046 22.7689 21.6408 23.1312 21.6408 23.5788C21.6408 23.6171 21.6408 23.6554 21.6408 23.6937H20.3336C20.2892 23.0192 20.2626 22.3154 20.2537 21.5761H34.3704C34.3644 22.2859 34.3467 22.9957 34.3142 23.6937H23.2675C23.2675 23.6525 23.2675 23.6171 23.2675 23.5788ZM20.4814 25.3106H21.697C22.1288 31.6338 24.9592 33.0297 27.3667 33.0297C27.8163 33.0297 28.1801 32.6675 28.1801 32.2198C28.1801 31.7722 27.8163 31.4099 27.3667 31.4099C24.9681 31.4099 23.6135 29.3572 23.3237 25.3106H34.1959C33.7315 30.1141 32.1492 34.1018 27.3105 34.1018C23.4686 34.1018 21.1794 31.1478 20.4814 25.3106Z" fill="#E1A772"/>
</g>
<defs>
<clipPath id="clip0_1_1265">
<rect width="36" height="46" fill="white"/>
</clipPath>
</defs>
</svg>
