<svg width="55" height="43" viewBox="0 0 55 43" fill="none" xmlns="http://www.w3.org/2000/svg">
<g clip-path="url(#clip0_1_1376)">
<path d="M34.1106 2.27576C33.9227 2.27576 33.7382 2.3101 33.5626 2.37991C32.7987 2.67905 32.424 3.53773 32.726 4.29446C32.9519 4.86063 33.4955 5.22737 34.1106 5.22737C34.2985 5.22737 34.4831 5.19302 34.6587 5.12322C35.0289 4.97808 35.3197 4.69887 35.4774 4.33767C35.6351 3.97648 35.6418 3.5754 35.4953 3.20866C35.2693 2.64138 34.7258 2.27576 34.1106 2.27576ZM34.246 3.80807C34.2348 3.83355 34.2124 3.86679 34.1654 3.88563C34.1475 3.89227 34.1296 3.8956 34.1117 3.8956C34.0659 3.8956 34.0021 3.87122 33.9753 3.80364C33.9451 3.7294 33.9831 3.64409 34.0581 3.61528C34.076 3.60863 34.0939 3.60531 34.1117 3.60531C34.1576 3.60531 34.2214 3.62969 34.2482 3.69727C34.2661 3.74381 34.2571 3.78369 34.246 3.80807Z" fill="#E1A772"/>
<path d="M54.9421 9.37668C54.9409 9.37114 54.9387 9.3656 54.9376 9.36117C54.9264 9.32128 54.9152 9.2814 54.9018 9.24151C54.885 9.19387 54.866 9.14623 54.8459 9.09858C54.8201 9.04319 54.7933 8.9889 54.762 8.93571C54.3045 8.14906 53.2465 7.75019 51.6147 7.75019C51.5185 7.75019 51.42 7.75241 51.3205 7.75463C51.287 7.75573 51.2534 7.75684 51.2198 7.75795C51.1527 7.76016 51.0845 7.76349 51.0163 7.76681C50.976 7.76903 50.9346 7.77124 50.8933 7.77457C50.8295 7.779 50.7658 7.78343 50.7009 7.78786C50.6573 7.79119 50.6125 7.79451 50.5689 7.79894C50.5029 7.80448 50.4347 7.81113 50.3676 7.81778C50.3251 7.82221 50.2826 7.82553 50.239 7.83107C50.145 7.84105 50.0499 7.85213 49.9549 7.86431C49.9124 7.86985 49.8699 7.87539 49.8262 7.88093C49.7412 7.89201 49.6551 7.9042 49.569 7.91639C49.5231 7.92304 49.4762 7.93079 49.4303 7.93744C49.3576 7.94852 49.2838 7.9596 49.21 7.97179C49.163 7.97954 49.1149 7.9873 49.0668 7.99616C48.9885 8.00946 48.9091 8.02386 48.8286 8.03826C48.7861 8.04602 48.7447 8.05378 48.7022 8.06153C48.5982 8.08147 48.4942 8.10142 48.3879 8.12247C48.3689 8.12579 48.351 8.12912 48.332 8.13355C48.0636 8.18784 47.7895 8.24767 47.5099 8.31415C47.5021 8.31636 47.4943 8.31747 47.4864 8.31969C47.35 8.35182 47.2124 8.38506 47.0726 8.42051C47.0693 8.42162 47.067 8.42162 47.0637 8.42273C46.8937 8.46594 46.7203 8.51136 46.5469 8.5579C46.4832 8.57562 46.4183 8.59335 46.3534 8.61108C46.2394 8.6421 46.1253 8.67423 46.009 8.70747C45.9385 8.72742 45.868 8.74736 45.7976 8.76841C45.6578 8.80941 45.5168 8.85151 45.3759 8.89472C45.3368 8.90691 45.2976 8.91798 45.2574 8.93017C45.2551 8.93017 45.254 8.93128 45.2518 8.93128H45.2506C44.2373 9.24373 43.186 9.61379 42.1167 10.0359C41.0374 9.27918 39.6819 8.85483 38.2055 8.85483C37.1329 8.85483 36.0793 9.07975 35.0738 9.52515C34.8591 9.62043 34.7103 9.81876 34.6813 10.0503C34.6522 10.2808 34.7472 10.5101 34.9318 10.6542C35.7259 11.2735 36.2482 11.9671 36.5748 12.6197C36.4674 12.6773 36.3623 12.7349 36.256 12.7936C36.2426 12.7526 36.227 12.7128 36.2113 12.6729C35.8344 11.7256 34.6622 11.2026 33.2496 10.9289C33.3973 10.6785 33.5102 10.4049 33.5785 10.109L33.9632 8.43491C33.9777 8.42716 33.9923 8.4194 34.0068 8.41165C34.0113 8.40943 34.0158 8.40832 34.0203 8.405C34.2093 8.30417 34.4195 8.19005 34.6432 8.06485C34.6712 8.04934 34.6992 8.03383 34.7271 8.01721C34.7405 8.00946 34.7551 8.0017 34.7685 7.99395C34.9296 7.90309 35.0973 7.8067 35.2707 7.70477C35.3356 7.6671 35.3993 7.62943 35.4631 7.59065C35.5537 7.53636 35.6454 7.48207 35.7382 7.42556C35.8366 7.36573 35.9339 7.3059 36.0312 7.24496C36.114 7.19289 36.1979 7.13971 36.2818 7.08652C36.3645 7.03334 36.4473 6.98016 36.5289 6.92698C36.662 6.84056 36.7951 6.75192 36.9282 6.66218C39.003 5.25285 41.0486 3.40809 40.6952 1.77606C40.6941 1.77052 40.6918 1.76498 40.6907 1.75944C40.6818 1.71956 40.6717 1.67856 40.6605 1.63868C40.646 1.58993 40.6292 1.54118 40.6102 1.49353C40.2098 0.503015 38.9862 0 36.9685 0C36.8734 0 36.7772 0.00110796 36.6799 0.00332389C36.6509 0.00443185 36.6207 0.00553981 36.5916 0.00553981C36.5256 0.00775573 36.4596 0.00997166 36.3925 0.0121876C36.3444 0.0144035 36.2963 0.0166194 36.2482 0.0199433C36.2012 0.0221592 36.1543 0.0254831 36.1062 0.027699C36.0424 0.0321309 35.9787 0.0354548 35.9138 0.0409946C35.8858 0.0432105 35.8579 0.0454264 35.8299 0.0476424C34.4386 0.156223 32.8034 0.45094 31.0284 0.917392C31.015 0.920716 31.0027 0.926256 30.9892 0.930688C29.9703 1.19881 28.9123 1.52123 27.8397 1.8924C26.7123 1.03151 25.256 0.536254 23.6745 0.536254C22.7093 0.536254 21.753 0.719067 20.8337 1.07915C20.6156 1.16447 20.4579 1.35725 20.4187 1.5866C20.3796 1.81595 20.4646 2.04973 20.6435 2.20152C21.4108 2.85411 21.9018 3.56985 22.1993 4.23463C20.0988 5.24952 18.0968 6.37743 16.4762 7.47099C15.7537 7.95849 15.1307 8.42051 14.6028 8.85816C13.5078 7.75906 12.0516 7.14414 10.4164 7.14414C9.48248 7.14414 8.50271 7.34246 7.50729 7.73247C6.76463 8.02386 6.06672 8.40057 5.43255 8.85372C5.19544 9.02324 5.0959 9.32572 5.18761 9.6016C5.27821 9.87416 5.53545 10.0581 5.82513 10.0581C5.82849 10.0581 5.83184 10.0581 5.83408 10.0581H5.88329C7.70413 10.0581 9.46234 11.3965 10.2576 13.3875C10.5036 14.0035 10.639 14.634 10.6703 15.2478C10.2139 15.4727 9.79788 15.6932 9.42096 15.9114C8.31481 14.3426 6.54206 13.4351 4.40134 13.4351C3.82645 13.4351 3.22472 13.5005 2.61069 13.629C1.83001 13.793 1.07841 14.049 0.37602 14.3913C0.113183 14.5198 -0.0355711 14.8013 0.00916709 15.0882C0.0539053 15.3752 0.279833 15.6001 0.569513 15.6444C2.38812 15.9236 3.91481 17.5368 4.3689 19.6586C4.823 21.7803 4.08817 23.8677 2.54023 24.8549C2.29417 25.0122 2.17897 25.3092 2.25614 25.5895C2.33332 25.8698 2.58497 26.067 2.87688 26.0792C2.99768 26.0836 3.11847 26.0859 3.24038 26.0859C3.90363 26.0859 4.57358 26.0161 5.23235 25.8776C6.14724 25.6859 6.96595 25.3768 7.67505 24.9646C7.67953 25.0122 7.68624 25.0588 7.70078 25.1053C7.7869 25.3823 8.04526 25.5718 8.3383 25.574C10.1793 25.584 11.9297 26.9545 12.6958 28.9865C13.2192 30.3726 13.1913 31.8251 12.6813 32.9907C12.3278 33.076 11.9968 33.1646 11.6869 33.2566C10.7899 30.9842 8.58324 29.5338 5.61039 29.4496C4.80845 29.4264 4.01994 29.5006 3.25716 29.669C2.97083 29.7322 2.75945 29.9715 2.73484 30.2607C2.70912 30.5498 2.87688 30.8213 3.14755 30.9321C4.84872 31.6279 5.94928 33.5513 5.88665 35.7196C5.82401 37.8868 4.61384 39.7448 2.87465 40.3431C2.59839 40.4384 2.41608 40.6999 2.42391 40.9902C2.43286 41.2804 2.62971 41.5308 2.91156 41.6106C3.66428 41.8222 4.45055 41.9408 5.24801 41.9641C5.34196 41.9663 5.43479 41.9685 5.5265 41.9685C7.49722 41.9685 9.16372 41.3558 10.347 40.1969C10.838 39.716 11.234 39.1443 11.5281 38.5083C12.1757 38.7421 12.9217 38.9648 13.7695 39.1797C16.8016 39.9465 20.78 40.4672 24.4116 40.5702C24.6409 40.5769 24.8702 40.5813 25.1006 40.5846L24.4116 41.5209C24.3065 41.6638 24.264 41.8411 24.2908 42.015C24.3188 42.189 24.415 42.3452 24.5581 42.4493C25.0592 42.8105 25.6497 43.0022 26.2682 43.0022C27.1954 43.0022 28.0757 42.559 28.6204 41.8167L29.6381 40.4317C31.9847 40.2323 34.1444 39.8379 35.746 39.234C35.8176 39.2074 35.8881 39.1809 35.9574 39.1532C37.2269 38.6501 38.2167 37.9654 38.4549 37.0336C38.456 37.0292 38.4572 37.0237 38.4583 37.0181C38.4728 36.9616 38.4851 36.904 38.493 36.8453C38.503 36.7799 38.5086 36.7134 38.5108 36.6458C38.512 36.6037 38.512 36.5616 38.5097 36.5206C38.5097 36.5107 38.5086 36.5007 38.5075 36.4907C38.5053 36.4586 38.5041 36.4276 38.5008 36.3965C38.5008 36.3921 38.4997 36.3866 38.4985 36.3821C38.4918 36.3267 38.4818 36.2702 38.4706 36.216C38.4583 36.1606 38.4437 36.1063 38.4258 36.052C38.4247 36.0475 38.4236 36.042 38.4214 36.0376C38.4124 36.0121 38.4024 35.9855 38.3934 35.96C38.3889 35.9467 38.3845 35.9334 38.3789 35.9201C38.3699 35.898 38.3599 35.8758 38.3498 35.8536C38.342 35.837 38.3352 35.8204 38.3274 35.8049C38.3174 35.785 38.3073 35.765 38.2972 35.7462C38.2872 35.7273 38.2782 35.7096 38.2681 35.6908C38.2581 35.673 38.2469 35.6553 38.2368 35.6376C38.2245 35.6176 38.2133 35.5977 38.1999 35.5778C38.1898 35.5623 38.1787 35.5467 38.1686 35.5301C38.1541 35.508 38.1395 35.4869 38.1239 35.4648C38.1138 35.4515 38.1037 35.4371 38.0925 35.4238C38.0746 35.4005 38.0568 35.3761 38.0377 35.3528C38.0288 35.3418 38.0187 35.3307 38.0098 35.3196C37.9874 35.293 37.965 35.2675 37.9416 35.2409C37.9337 35.2332 37.927 35.2243 37.9192 35.2166C37.8912 35.1867 37.8633 35.1567 37.8331 35.1268C37.8297 35.1224 37.8252 35.1191 37.8219 35.1146C37.7637 35.057 37.7022 35.0005 37.6373 34.944C37.5747 34.8897 37.5087 34.8354 37.4405 34.7822C37.4394 34.7811 37.4382 34.78 37.4371 34.78C36.983 34.4299 36.4149 34.123 35.7863 33.8549C36.4182 33.7751 37.0457 33.6843 37.6608 33.5834C37.8879 33.5469 38.1138 33.5081 38.3397 33.4671L37.8442 34.5174C37.7693 34.677 37.7604 34.8598 37.8219 35.026C37.8823 35.1922 38.0075 35.3263 38.1686 35.4016C38.5578 35.5811 38.9716 35.673 39.3978 35.673C40.5229 35.673 41.5575 35.0205 42.034 34.0111L42.7677 32.4555C42.7845 32.4511 42.8001 32.4467 42.8169 32.4411C42.8214 32.44 42.8258 32.44 42.8303 32.4389C43.0383 32.3791 43.2688 32.3115 43.5159 32.235C43.5417 32.2273 43.5685 32.2184 43.5942 32.2107C43.6188 32.2029 43.6434 32.1952 43.668 32.1874C43.8436 32.1331 44.0259 32.0744 44.215 32.0112C44.2854 31.988 44.3536 31.9647 44.423 31.9414C44.5237 31.9071 44.6254 31.8727 44.7283 31.8362C44.8346 31.7996 44.9397 31.7619 45.0449 31.7243C45.1377 31.691 45.2316 31.6556 45.3267 31.6212C45.4162 31.588 45.5057 31.5536 45.594 31.5204C45.7405 31.4639 45.8882 31.4063 46.0369 31.3465C48.3667 30.4036 50.7635 29.0275 50.7669 27.3578C50.7669 27.3523 50.7669 27.3467 50.7669 27.3401C50.7669 27.2991 50.7658 27.257 50.7624 27.216C50.759 27.1661 50.7523 27.1163 50.7445 27.0664C50.7445 27.0653 50.7445 27.0642 50.7445 27.0631C50.6416 26.4482 50.2322 25.9773 49.6383 25.6139C48.039 24.6366 45.0963 24.456 43.1446 24.456C42.8012 24.456 42.4512 24.4616 42.0944 24.4727C41.8998 24.4782 41.7029 24.486 41.5061 24.4948C41.5049 24.4948 41.5038 24.4948 41.5027 24.4948C40.4346 24.5436 39.3184 24.64 38.1831 24.7796C37.946 24.5015 37.6832 24.2433 37.3969 24.0073C37.4136 23.9985 37.4282 23.9896 37.445 23.9807C37.5725 23.9109 37.7033 23.8389 37.8375 23.7625C37.9259 23.7126 38.012 23.6639 38.0981 23.614C38.1608 23.5785 38.2234 23.542 38.286 23.5043C38.4046 23.4345 38.5231 23.3658 38.6395 23.296C38.7066 23.2561 38.7737 23.2151 38.8408 23.173C38.9336 23.1154 39.0265 23.0589 39.1182 23.0013C39.2468 22.9204 39.3754 22.8384 39.504 22.7542C41.1862 21.6562 42.8527 20.279 43.2788 18.9329C43.4712 18.8509 43.6636 18.7678 43.8537 18.6836C44.064 18.5905 44.272 18.4963 44.4812 18.401L44.2698 19.5411C44.2373 19.7151 44.2765 19.8935 44.3771 20.0386C44.4778 20.1837 44.6333 20.2835 44.8089 20.3145C44.9822 20.3466 45.1601 20.3621 45.3357 20.3621C46.7382 20.3621 47.9405 19.3694 48.1933 18L48.5054 16.3114C48.5199 16.3026 48.5344 16.2937 48.5501 16.2859C48.5534 16.2837 48.5579 16.2826 48.5613 16.2804C48.7436 16.1729 48.9449 16.0522 49.1596 15.9192C49.975 15.4184 50.7367 14.9054 51.4223 14.3913C53.4221 12.9022 55.3637 10.9832 54.9421 9.37668ZM45.7372 18.9838L45.9776 17.6853C46.3177 17.5147 46.6532 17.3418 46.9831 17.1657L46.8724 17.764C46.7617 18.3656 46.3098 18.832 45.7372 18.9838ZM40.5934 25.8831C40.3596 26.8149 40.3194 27.7877 40.4793 28.745C40.5319 29.0629 40.6068 29.3754 40.7019 29.6801C40.7947 29.9781 40.9066 30.2684 41.0374 30.5498C41.1761 30.8501 41.3372 31.1404 41.5173 31.4196C41.477 31.4296 41.4367 31.4406 41.3976 31.4506C41.1649 31.5104 40.9289 31.5692 40.6907 31.6257C40.4178 31.691 40.1404 31.7531 39.8608 31.814C39.5902 31.8727 39.3161 31.9292 39.0399 31.9846C38.5153 32.0888 37.9818 32.1863 37.4416 32.2749C35.8344 32.5375 34.1466 32.7303 32.4891 32.8455C32.4611 32.8389 32.432 32.8333 32.4041 32.8267C32.2934 32.8023 32.1849 32.7791 32.0764 32.7558C31.978 32.7347 31.8784 32.7148 31.7789 32.6948C31.6883 32.6771 31.5988 32.6594 31.5116 32.6428C31.4321 32.6273 31.3527 32.6129 31.2722 32.5973C31.1425 32.573 31.0161 32.5508 30.8931 32.5298C30.8394 32.5209 30.7868 32.5109 30.7331 32.5021C30.5452 32.4699 30.3663 32.4411 30.1996 32.4156C30.1504 32.4079 30.1023 32.4012 30.0531 32.3935C30.0151 32.3879 29.977 32.3824 29.9401 32.3769C29.9345 32.3758 29.9289 32.3758 29.9234 32.3758C28.8731 32.2229 27.7692 32.1043 26.6273 32.0267C26.313 31.4706 25.9047 30.9531 25.4059 30.4889C25.1643 30.264 24.9071 30.0568 24.6353 29.8695C25.1207 29.6269 25.6978 29.3665 26.3879 29.0895C28.0466 28.4237 30.0363 27.7977 32.1055 27.2791L32.063 27.4475C32.0238 27.6038 32.0439 27.7677 32.1166 27.9096C32.1234 27.924 32.1312 27.9373 32.139 27.9506C32.2307 28.1012 32.3795 28.2098 32.5517 28.253C32.5965 28.2641 32.6412 28.273 32.6871 28.2818C32.8738 28.3184 33.064 28.3383 33.2541 28.3383C34.0001 28.3383 34.6902 28.058 35.2114 27.5871C35.5492 27.2825 35.8143 26.8958 35.9787 26.4548C36.1386 26.4271 36.2985 26.3994 36.4585 26.3728C36.8298 26.3119 37.2 26.2576 37.5702 26.2055C37.8107 26.1723 38.05 26.139 38.2894 26.1102C38.5265 26.0803 38.7636 26.0526 38.9996 26.0271C39.5365 25.9673 40.0689 25.9197 40.5934 25.8831ZM39.4067 34.3446L39.9704 33.1491C40.3429 33.0693 40.7108 32.9862 41.0766 32.8987L40.8171 33.4494C40.5621 33.9901 40.0096 34.3402 39.4067 34.3446ZM43.1424 25.7867C47.5636 25.7867 49.3174 26.6797 49.418 27.2802C49.4202 27.2969 49.4214 27.3146 49.4214 27.3323C49.4303 27.6104 49.1641 28.0037 48.5904 28.4591C48.5725 28.4735 48.5546 28.4879 48.5356 28.5023C48.5188 28.5156 48.502 28.5289 48.4841 28.5422C48.0144 28.8979 47.3612 29.2879 46.51 29.6878C46.5056 29.6901 46.5011 29.6923 46.4977 29.6934C46.434 29.7233 46.3691 29.7532 46.3031 29.7831C46.2036 29.8286 46.1018 29.874 45.9967 29.9194C45.9698 29.9316 45.943 29.9427 45.915 29.9549C45.7886 30.0091 45.6578 30.0634 45.5236 30.1177C45.4732 30.1388 45.4207 30.1587 45.3692 30.1798C45.2853 30.213 45.2003 30.2463 45.1131 30.2806C45.0471 30.3061 44.9811 30.3316 44.9129 30.357C44.8536 30.3792 44.7932 30.4014 44.7328 30.4235C44.5416 30.4944 44.3469 30.5631 44.1479 30.6318C44.1411 30.634 44.1356 30.6363 44.1288 30.6385C43.8246 30.7426 43.5059 30.8457 43.1737 30.9487C43.0775 30.9786 42.9813 31.0085 42.8818 31.0384C42.752 30.8678 42.6346 30.6894 42.525 30.5055C42.166 29.8995 41.9188 29.2303 41.8025 28.5278C41.6503 27.6137 41.7219 26.683 42.0083 25.8089C42.0083 25.8078 42.0083 25.8078 42.0094 25.8066C42.0888 25.8044 42.1671 25.8022 42.2465 25.8011C42.3136 25.7989 42.3818 25.7978 42.4489 25.7956C42.6726 25.7911 42.8929 25.7878 43.1099 25.7878C43.1211 25.7878 43.1323 25.7867 43.1424 25.7867ZM26.2682 41.6704C26.1709 41.6704 26.0736 41.6616 25.9797 41.6439L26.7637 40.578C27.1429 40.5702 27.5209 40.5581 27.8967 40.5414L27.5366 41.0312C27.2424 41.4322 26.7682 41.6704 26.2682 41.6704ZM25.8164 39.2584C25.3657 39.2584 24.9048 39.2518 24.4496 39.2385C22.3995 39.1797 20.2387 38.9859 18.2098 38.6878C17.5342 38.5881 16.8743 38.4784 16.2379 38.3565C15.4886 38.2136 14.7694 38.0585 14.1017 37.889C13.2338 37.6696 12.528 37.4513 11.9554 37.2419C11.725 37.1577 11.5147 37.0757 11.3257 36.9948C11.0863 36.8929 10.8794 36.7954 10.7005 36.7023C9.89854 36.2835 9.66143 35.9567 9.6659 35.8248C9.66926 35.6985 9.91979 35.385 10.7486 35.0105C10.9331 34.9274 11.1456 34.841 11.3906 34.7523C11.4129 34.7446 11.4353 34.7357 11.4577 34.728C11.6344 34.6659 11.8279 34.6028 12.0393 34.5396C12.2149 34.4864 12.4028 34.4332 12.603 34.3812C12.9184 34.2981 13.2651 34.215 13.6476 34.133C14.2314 34.0078 14.8578 33.8948 15.5121 33.7939C15.974 33.723 16.4504 33.6566 16.9392 33.5989C17.4873 33.5336 18.0498 33.4771 18.6214 33.4294C18.8439 33.4106 19.0676 33.3929 19.2924 33.3774C19.515 33.3618 19.7376 33.3463 19.9624 33.3341C20.0843 33.3275 20.2062 33.3208 20.3281 33.3142C20.5597 33.302 20.7934 33.2909 21.026 33.2821C21.2564 33.2732 21.488 33.2654 21.7195 33.2588C21.828 33.2555 21.9353 33.2533 22.0438 33.251C22.4208 33.2433 22.7977 33.2389 23.1735 33.2389C23.2495 33.2389 23.3256 33.24 23.4016 33.24C23.6276 33.2411 23.8524 33.2433 24.0772 33.2466C24.1163 33.2477 24.1544 33.2488 24.1924 33.2488C24.3356 33.2522 24.481 33.2544 24.6219 33.2577C24.6666 33.2588 24.7102 33.261 24.755 33.2621C25.0883 33.2721 25.4182 33.2865 25.7459 33.3031C25.9886 33.3153 26.2291 33.3297 26.4684 33.3452C26.7078 33.3607 26.9471 33.3785 27.1831 33.3984C27.7256 33.4427 28.2569 33.4981 28.7769 33.5602C28.7669 33.5823 28.7568 33.6045 28.7467 33.6266C28.6483 33.8427 28.56 34.0643 28.4839 34.2881C28.2591 34.9496 28.1327 35.6431 28.1115 36.3478C28.1025 36.6691 28.1148 36.9904 28.1495 37.3073C28.183 37.6175 28.2367 37.9233 28.3117 38.2247C28.39 38.546 28.4917 38.8607 28.6148 39.1687C28.5734 39.1709 28.532 39.1731 28.4895 39.1764C28.2501 39.1908 28.0086 39.203 27.7636 39.2141C27.4829 39.2263 27.1988 39.2363 26.9125 39.2429C26.6351 39.2495 26.3555 39.2529 26.0736 39.2551C25.9886 39.2573 25.9025 39.2584 25.8164 39.2584ZM5.28604 40.6334C5.19432 40.6312 5.10261 40.6267 5.0109 40.6212C6.32955 39.4966 7.16951 37.7228 7.22655 35.7561C7.2836 33.7895 6.54653 31.9702 5.2961 30.7736C5.38781 30.7747 5.47953 30.7747 5.57124 30.777C7.96026 30.8446 9.6961 31.9392 10.4164 33.702C9.03733 34.2826 8.34725 34.9717 8.32376 35.7872C8.30027 36.606 8.95233 37.3372 10.3023 37.9953C9.51939 39.6639 7.82716 40.6367 5.5265 40.6367C5.44709 40.6367 5.36656 40.6356 5.28604 40.6334ZM4.68319 24.6289C5.69763 23.2284 6.09356 21.3094 5.68085 19.3838C5.26926 17.4582 4.12061 15.8627 2.61964 14.9907C2.708 14.9686 2.79747 14.9486 2.88807 14.9298C3.41039 14.8201 3.91928 14.7647 4.40022 14.7647C6.07455 14.7647 7.43347 15.4394 8.29468 16.6383C7.0901 17.5246 6.58121 18.3589 6.75233 19.1589C6.91898 19.9367 7.66722 20.4751 9.03957 20.8042C9.0899 20.8164 9.14135 20.8275 9.1928 20.8397C9.08207 21.3792 8.87739 21.8845 8.57876 22.3421C7.85289 23.4589 6.59798 24.2322 4.9505 24.5779C4.86326 24.5956 4.77378 24.6123 4.68319 24.6289ZM10.5081 16.831C10.7407 16.7047 10.9946 16.5729 11.2709 16.4366C11.4957 16.3258 11.735 16.2117 11.9901 16.0954C12.0124 16.0854 12.0337 16.0743 12.0572 16.0643C12.9575 15.6555 13.9597 15.2533 15.0211 14.8733C15.2727 14.7835 15.5277 14.6938 15.7861 14.6063C16.0243 14.5254 16.2648 14.4456 16.5075 14.3669C16.9437 14.2251 17.3866 14.0888 17.8329 13.9559C18.0554 13.8894 18.2791 13.8251 18.5039 13.762C18.7265 13.6988 18.9491 13.6379 19.1728 13.577C20.1156 13.3232 21.0641 13.0939 21.9935 12.8989C22.3637 12.8213 22.7317 12.7482 23.0974 12.6806C23.3357 12.6363 23.5728 12.5942 23.8088 12.5543C24.0459 12.5144 24.283 12.4757 24.5167 12.4391C25.0536 12.356 25.5826 12.284 26.1027 12.2241C25.9115 13.1659 25.9148 14.1409 26.1184 15.0904C26.1855 15.4051 26.275 15.7142 26.3834 16.0145C26.3991 16.0577 26.4159 16.1009 26.4327 16.1441C26.4651 16.2294 26.4998 16.3136 26.5356 16.3967C26.4293 16.3923 26.323 16.389 26.2146 16.389C26.0278 16.389 25.8399 16.3978 25.6542 16.4111C24.9272 16.4643 24.2069 16.6205 23.5068 16.8798C23.4509 16.9009 23.3994 16.9285 23.3513 16.9618C23.2126 17.0604 23.1142 17.2089 23.0818 17.3795C23.0583 17.5025 23.0717 17.6266 23.1153 17.7396C23.1533 17.8371 23.2126 17.9257 23.2943 17.9977C23.5202 18.1972 23.7193 18.4021 23.8982 18.6093C23.8032 18.6304 23.7081 18.6503 23.613 18.6714C23.4911 18.698 23.3692 18.7257 23.2462 18.7511C23.0337 18.7955 22.82 18.8387 22.6053 18.8819C22.1154 18.9783 21.6199 19.0669 21.1222 19.15C18.4122 19.6032 15.6373 19.8558 13.2584 19.8558C12.3424 19.8558 11.5796 19.8192 10.9454 19.7594C10.8358 19.7494 10.7318 19.7383 10.63 19.7262C10.3851 19.6985 10.1625 19.6674 9.95894 19.6331C9.70169 19.5899 9.47688 19.5433 9.28004 19.4946C9.22859 19.4813 9.17938 19.4691 9.13128 19.4558C8.36961 19.2453 8.09447 19.0071 8.06763 18.8819C8.03967 18.7523 8.21303 18.39 8.92549 17.836C9.08431 17.7119 9.27109 17.5789 9.48807 17.436C9.66031 17.323 9.85268 17.2033 10.0663 17.0792C10.205 16.9984 10.3515 16.9164 10.5081 16.831ZM7.7444 9.07421C7.8294 9.03765 7.9144 9.00219 8.00052 8.96895C8.83825 8.641 9.65136 8.47369 10.4164 8.47369C11.6769 8.47369 12.7786 8.92685 13.6196 9.75893C12.5817 10.8314 12.2205 11.7377 12.5247 12.4989C12.7719 13.1183 13.4015 13.5049 14.4328 13.6711C13.5615 13.9869 12.7305 14.316 11.961 14.6506C11.886 14.0645 11.735 13.475 11.5046 12.8978C10.7754 11.0741 9.37175 9.68691 7.7444 9.07421ZM17.2311 8.57119C18.7455 7.54854 20.6089 6.49598 22.5706 5.53649C22.7798 5.43455 22.9889 5.33373 23.1992 5.23401C23.4084 5.1354 23.6175 5.0379 23.8278 4.94151C24.7147 4.53489 25.6106 4.15264 26.4942 3.80696C26.8431 3.66957 27.1921 3.53883 27.5399 3.41141C27.7692 3.32721 27.9985 3.24633 28.2267 3.16656C28.4526 3.08789 28.6785 3.01144 28.9022 2.93721C29.4189 2.76658 29.9301 2.60814 30.4322 2.463C30.4032 3.42249 30.5709 4.38199 30.9311 5.28498C31.0508 5.58413 31.1906 5.87441 31.3483 6.15251C31.5026 6.42396 31.6737 6.68433 31.8616 6.93252C32.0618 7.19732 32.2799 7.44772 32.5159 7.6815C32.479 7.70034 32.4421 7.71806 32.4052 7.7369C32.1905 7.84437 31.9724 7.95073 31.752 8.05599C31.4993 8.17676 31.242 8.29642 30.9814 8.41386C30.7298 8.52798 30.4736 8.641 30.2153 8.75179C29.7243 8.96341 29.2243 9.1706 28.7154 9.37003C27.0299 10.0304 25.2482 10.6176 23.518 11.0973C22.291 9.85643 20.5004 9.10412 18.4983 9.10412C17.9559 9.10412 17.4078 9.16174 16.8699 9.27475C16.6395 9.3235 16.4527 9.48748 16.3755 9.70685C16.2983 9.92734 16.3431 10.1711 16.493 10.3495C17.0499 11.0142 17.3967 11.6901 17.598 12.3161C17.1909 12.3626 16.805 12.3959 16.4437 12.4147C16.2055 12.4269 15.9773 12.4347 15.7615 12.4347C15.4986 12.4347 15.2705 12.4247 15.0692 12.4081C14.1241 12.3316 13.8098 12.1067 13.7717 12.0081C13.7225 11.8851 13.8321 11.4984 14.4417 10.8348C14.5782 10.6863 14.7392 10.5234 14.9293 10.3473C15.0803 10.2077 15.2492 10.0581 15.4382 9.90075C15.9046 9.51296 16.4918 9.06978 17.2311 8.57119ZM26.2593 2.46965C26.1732 2.50289 26.0871 2.53612 26.0009 2.56936C25.142 2.90618 24.2718 3.27514 23.4084 3.66846C23.1556 3.11116 22.8055 2.5461 22.3413 2.00873C22.7809 1.91345 23.2272 1.86581 23.6745 1.86581C24.6163 1.86692 25.4999 2.08297 26.2593 2.46965ZM36.4417 1.34174C36.5211 1.33842 36.5994 1.3362 36.6766 1.33399C36.6866 1.33399 36.6967 1.33288 36.7068 1.33288C36.7951 1.33066 36.8824 1.32955 36.9685 1.32955C38.2346 1.32955 38.9303 1.54893 39.2177 1.79933C39.2871 1.85916 39.3329 1.92121 39.3575 1.98214V1.98325C39.3631 1.99876 39.3676 2.01427 39.3721 2.03089C39.4414 2.30124 39.2647 2.73999 38.8016 3.30394C38.7837 3.3261 38.7659 3.34715 38.7468 3.36931C38.7357 3.3815 38.7267 3.39369 38.7155 3.40698C38.3319 3.85349 37.7749 4.37202 37.0267 4.94373C37.0244 4.94483 37.0222 4.94705 37.0211 4.94816C36.964 4.99137 36.9047 5.03569 36.8455 5.08001C36.7582 5.14427 36.6688 5.20964 36.577 5.27611C36.5524 5.29384 36.5289 5.31157 36.5043 5.3293C36.3925 5.40907 36.2762 5.48995 36.1565 5.57083C36.1118 5.60075 36.0659 5.63177 36.0212 5.66168C35.944 5.71265 35.8668 5.76473 35.7874 5.8168C35.7292 5.85447 35.6722 5.89214 35.614 5.92981C35.5548 5.96748 35.4933 6.00626 35.4329 6.04504C35.2729 6.14586 35.1096 6.2478 34.943 6.34751C34.9284 6.35638 34.915 6.36524 34.9005 6.373C34.7853 6.4428 34.6667 6.5126 34.547 6.5824C34.5459 6.5824 34.5459 6.58351 34.5448 6.58351C34.424 6.65442 34.301 6.72422 34.1768 6.79402C34.131 6.81951 34.0851 6.8461 34.0393 6.87158C33.9509 6.92144 33.8625 6.97019 33.772 7.02115C33.6087 6.88044 33.4554 6.73087 33.31 6.57465C32.8291 6.05723 32.4455 5.4545 32.1815 4.79304C31.837 3.93105 31.7084 3.00479 31.8035 2.09072C31.8035 2.09072 31.8035 2.09072 31.8035 2.08962C31.8348 2.08186 31.865 2.0741 31.8963 2.06746C31.9064 2.06524 31.9153 2.06302 31.9254 2.06081C32.0316 2.03533 32.1368 2.00873 32.2408 1.98436C32.243 1.98325 32.2464 1.98325 32.2486 1.98214C32.6669 1.88354 33.074 1.79601 33.47 1.71845C33.5035 1.7118 33.5371 1.70515 33.5695 1.69851C33.6355 1.68632 33.7015 1.67413 33.7664 1.66194C33.8111 1.65419 33.857 1.64532 33.9017 1.63757C33.961 1.62649 34.0203 1.61652 34.0784 1.60654C34.1287 1.59768 34.1791 1.58882 34.2283 1.58106C34.2831 1.5722 34.3368 1.56333 34.3916 1.55447C34.4453 1.54561 34.4978 1.53785 34.5504 1.5301C34.6007 1.52234 34.6511 1.51458 34.7014 1.50794C34.7562 1.50018 34.8121 1.49242 34.8658 1.48467C34.9128 1.47802 34.9598 1.47248 35.0067 1.46583C35.0638 1.45808 35.1197 1.45143 35.1756 1.44478C35.2192 1.43924 35.264 1.4337 35.3065 1.42927C35.3646 1.42262 35.4228 1.41598 35.481 1.41044C35.5212 1.406 35.5604 1.40157 35.6006 1.39825C35.661 1.39271 35.7203 1.38717 35.7796 1.38163C35.8154 1.3783 35.8523 1.37498 35.8881 1.37276C35.9507 1.36723 36.0133 1.36279 36.0749 1.35947C36.1062 1.35725 36.1375 1.35504 36.1677 1.35282C36.2359 1.34839 36.303 1.34507 36.369 1.34174C36.3936 1.34396 36.4182 1.34285 36.4417 1.34174ZM38.5958 21.7559C38.5243 21.8025 38.4516 21.8479 38.3778 21.8944C38.314 21.9343 38.2514 21.9742 38.1854 22.0141C38.1406 22.0418 38.0937 22.0706 38.0478 22.0983C37.8633 22.2102 37.6742 22.3232 37.4807 22.434C37.4796 22.4351 37.4785 22.4351 37.4774 22.4362C37.1989 22.5969 36.9047 22.7598 36.5972 22.9237C36.5401 22.9548 36.482 22.9847 36.4249 23.0157C36.3925 23.0323 36.3601 23.05 36.3276 23.0667C36.1677 22.9237 36.0167 22.7708 35.8746 22.6124C35.6129 22.3188 35.3825 21.9997 35.1857 21.6595C35.0716 21.4634 34.9698 21.2596 34.8803 21.0502C34.8457 20.9704 34.8121 20.8917 34.7819 20.8097C34.7327 20.6801 34.6902 20.5494 34.6511 20.4164C34.4274 19.6641 34.3603 18.8775 34.4553 18.1019C34.4553 18.1008 34.4553 18.1008 34.4553 18.0997C35.7874 17.7939 37.0244 17.5889 38.1127 17.4936C38.1239 17.4925 38.135 17.4914 38.1462 17.4914C38.2245 17.4847 38.3039 17.4781 38.3811 17.4726C38.4113 17.4703 38.4415 17.4681 38.4717 17.467C38.5299 17.4626 38.5891 17.4593 38.6462 17.4559C38.6987 17.4526 38.7502 17.4504 38.8016 17.4482C38.8374 17.4471 38.8732 17.4449 38.9079 17.4426C38.9918 17.4393 39.0745 17.4371 39.1573 17.4349C39.1607 17.4349 39.1629 17.4349 39.1663 17.4349C39.2535 17.4327 39.3396 17.4327 39.4235 17.4327C40.9815 17.4327 41.7421 17.7429 41.9613 18.0421C41.9836 18.072 42.0027 18.103 42.0138 18.1329C42.0194 18.1484 42.0239 18.1661 42.0273 18.1828C42.0631 18.3357 42.0206 18.5395 41.8919 18.7877C41.7924 18.9805 41.6403 19.1999 41.4345 19.4425C41.4144 19.4669 41.3931 19.4913 41.3719 19.5156C41.3629 19.5256 41.3551 19.5345 41.3461 19.5444C41.269 19.6309 41.184 19.7206 41.0934 19.8115C40.6851 20.2236 40.1371 20.6856 39.438 21.1853C39.3553 21.2441 39.2692 21.3039 39.1819 21.3648C39.1517 21.3859 39.1238 21.4058 39.0936 21.4269C38.9828 21.5022 38.8676 21.5798 38.7491 21.6562C38.6976 21.6906 38.6462 21.7227 38.5958 21.7559ZM36.0749 35.4836C36.0905 35.4925 36.105 35.5013 36.1207 35.5102C36.1453 35.5246 36.1688 35.5379 36.1912 35.5523C36.8197 35.9257 37.1374 36.2791 37.1653 36.5561C37.1676 36.5738 37.1687 36.5915 37.1687 36.6082C37.1687 36.627 37.1653 36.6469 37.162 36.6658C37.1609 36.6746 37.1586 36.6824 37.1564 36.6913C37.1542 36.699 37.1519 36.7057 37.1497 36.7134C37.0446 37.0746 36.4585 37.5289 35.3479 37.9532C35.3333 37.9588 35.3199 37.9643 35.3054 37.9699C35.2584 37.9876 35.2114 38.0053 35.1622 38.023C35.0973 38.0463 35.0313 38.0696 34.9642 38.0928C34.9586 38.0951 34.9519 38.0973 34.9463 38.0995C34.6622 38.1959 34.348 38.2889 34.0057 38.3798C33.9364 38.3975 33.8681 38.4164 33.7966 38.4341C33.7406 38.4485 33.6847 38.4618 33.6277 38.4751C33.5516 38.4939 33.4733 38.5116 33.3939 38.5294C33.3436 38.5405 33.2944 38.5526 33.2429 38.5637C33.1165 38.5914 32.9868 38.6191 32.8537 38.6457C32.8269 38.6512 32.7989 38.6557 32.7721 38.6612C32.6602 38.6834 32.5472 38.7044 32.432 38.7255C32.3806 38.7343 32.328 38.7443 32.2755 38.7532C32.1826 38.7698 32.0887 38.7853 31.9936 38.8008C31.9354 38.8108 31.8762 38.8197 31.8169 38.8296C31.7252 38.844 31.6312 38.8584 31.5373 38.8717C31.4758 38.8806 31.4154 38.8895 31.3539 38.8983C31.2487 38.9127 31.1402 38.9271 31.0329 38.9415C30.9031 38.9582 30.77 38.9748 30.6358 38.9903C30.5754 38.9969 30.515 39.0047 30.4535 39.0113C30.4144 39.0158 30.3741 39.0202 30.3338 39.0235C30.269 39.0302 30.2041 39.0379 30.1381 39.0446C30.1012 39.0479 30.0654 39.0523 30.0285 39.0568C29.9345 38.864 29.8529 38.6668 29.7824 38.4662C29.5464 37.8037 29.4335 37.1001 29.4547 36.3888C29.476 35.6609 29.637 34.9484 29.9234 34.287C30.0016 34.1064 30.0866 33.9291 30.1828 33.7574C30.2779 33.7729 30.3696 33.7884 30.4624 33.8039C30.5564 33.8194 30.6503 33.8349 30.7421 33.8505C30.836 33.8671 30.9277 33.8837 31.0194 33.9014C31.1313 33.9225 31.242 33.9424 31.3527 33.9646C31.4299 33.9801 31.5071 33.9945 31.582 34.01C31.7654 34.0477 31.9466 34.0853 32.1245 34.1252C32.1782 34.1374 32.2318 34.1485 32.2844 34.1607C32.318 34.1684 32.3504 34.1762 32.3828 34.1839C32.4231 34.1939 32.4634 34.2028 32.5036 34.2128C32.5897 34.2338 32.6748 34.2537 32.7575 34.2748C32.8157 34.2892 32.8738 34.3036 32.9298 34.318C33.0673 34.3535 33.2027 34.3889 33.3335 34.4255C33.3671 34.4343 33.3984 34.4443 33.4308 34.4532C33.536 34.4831 33.6389 34.513 33.7395 34.544C33.8122 34.5662 33.8849 34.5884 33.9554 34.6105H33.9565C34.858 34.893 35.5592 35.1933 36.0749 35.4836ZM34.7707 25.8277C34.7551 25.8897 34.7349 25.9507 34.7126 26.0094C34.5683 26.3828 34.2887 26.6797 33.9375 26.8492C33.8335 26.8991 33.7227 26.939 33.6075 26.9645C33.5919 26.9678 33.5773 26.9722 33.5617 26.9755L33.5729 26.929L33.6064 26.7927L33.7529 26.2066L33.8816 25.6947C34.1578 25.5762 34.433 25.4565 34.7036 25.3347C34.7752 25.3025 34.8468 25.2704 34.9173 25.2372L34.9027 25.2948L34.7707 25.8277ZM24.7527 31.7243C24.8187 31.7952 24.8825 31.8661 24.9429 31.9392C24.8858 31.937 24.8299 31.9348 24.7729 31.9337C24.736 31.9326 24.6979 31.9304 24.661 31.9292C24.4754 31.9237 24.2863 31.9204 24.0973 31.9171C23.8736 31.9126 23.6488 31.9104 23.4229 31.9093C23.3401 31.9093 23.2574 31.9071 23.1746 31.9071C22.9196 31.9071 22.6657 31.9093 22.4096 31.9126C22.2194 31.9148 22.0304 31.9182 21.8403 31.9226C21.8358 31.67 21.8168 31.4107 21.781 31.1448C21.743 30.8667 21.6871 30.582 21.6099 30.2928C21.5819 30.1897 21.5528 30.0867 21.5193 29.9826C21.6322 30.0036 21.7452 30.0291 21.8559 30.0568C22.1177 30.1211 22.3727 30.2019 22.6198 30.2972C22.7854 30.3615 22.9475 30.4324 23.1064 30.5099C23.1768 30.5443 23.2473 30.5809 23.3155 30.6185C23.537 30.7382 23.7484 30.8722 23.9508 31.0185C24.1376 31.1537 24.3154 31.2988 24.4843 31.455C24.5794 31.5437 24.6677 31.6334 24.7527 31.7243ZM19.8438 32.0079C19.6873 31.1526 19.3864 30.357 18.9692 29.6568C18.9748 29.5903 18.9782 29.525 18.9804 29.4585C19.2567 29.4485 19.5463 29.4308 19.8461 29.4075C19.8561 29.4385 19.8673 29.4685 19.8819 29.4984C20.327 30.3969 20.4925 31.2456 20.5026 31.9736C20.2834 31.9835 20.0631 31.9957 19.8438 32.0079ZM18.4066 31.7265C18.4413 31.8506 18.4715 31.9769 18.4972 32.1054C18.3932 32.1143 18.2903 32.1231 18.1863 32.1331C18.2668 32.0013 18.3384 31.865 18.4066 31.7265ZM33.3369 20.7045C33.3917 20.8962 33.4532 21.0867 33.5237 21.2751C33.5326 21.2984 33.5416 21.3205 33.5505 21.3438C33.6333 21.5554 33.725 21.7626 33.8268 21.9642C33.8581 22.0263 33.8905 22.0883 33.9241 22.1493C33.9945 22.28 34.0706 22.4085 34.15 22.5348C34.2361 22.6733 34.3278 22.8074 34.424 22.9392C34.5291 23.0833 34.6388 23.224 34.754 23.3603C34.8535 23.4777 34.9564 23.5907 35.0638 23.7015C35.0269 23.7192 34.9888 23.737 34.9519 23.7547C34.7976 23.8278 34.641 23.901 34.4833 23.9741C34.4195 24.0029 34.3569 24.0328 34.292 24.0616C34.0359 24.1779 33.7775 24.2921 33.5147 24.4051C33.3973 24.456 33.2776 24.5059 33.159 24.5569C33.0215 24.6145 32.8817 24.6721 32.743 24.7286C32.6748 24.7563 32.6065 24.7851 32.5372 24.8128C32.3325 24.8959 32.1256 24.9768 31.9176 25.0577C31.6905 25.1463 31.4612 25.2327 31.2297 25.318C30.9512 25.4211 30.6716 25.5219 30.3897 25.6205C29.9972 25.7579 29.6024 25.8909 29.2064 26.0194C28.6092 26.2133 28.0074 26.3961 27.4091 26.5678C27.1026 26.6553 26.7962 26.7407 26.4908 26.8226C26.2123 26.8969 25.9349 26.9689 25.6598 27.0376C25.3533 27.114 25.0491 27.1883 24.7483 27.257C24.0772 27.4121 23.4218 27.5484 22.7876 27.6647C22.4935 27.719 22.2038 27.7688 21.9197 27.8143C21.5696 27.8708 21.2285 27.9195 20.8974 27.9616C20.176 28.0536 19.5038 28.1112 18.8965 28.1312C18.8574 27.9018 18.8082 27.6725 18.7444 27.4442C18.6862 27.2359 18.6191 27.0287 18.5408 26.8215C18.5352 26.806 18.5285 26.7916 18.5229 26.7761C18.4357 26.5479 18.3384 26.3274 18.2321 26.1169C18.1427 25.9374 18.0454 25.7657 17.9436 25.5995C18.4178 25.2194 19.0128 24.7873 19.7611 24.3031C21.0294 23.4821 22.536 22.6434 24.1387 21.8568C24.3177 21.7692 24.4966 21.6828 24.6778 21.5964C24.8187 21.5288 24.9619 21.4623 25.1039 21.3959C25.1218 21.387 25.1397 21.3792 25.1576 21.3704C25.2012 21.3504 25.2437 21.3294 25.2874 21.3094C25.4551 21.2319 25.6229 21.1554 25.7918 21.0801C25.8276 21.0646 25.8634 21.048 25.898 21.0313C26.0736 20.9527 26.2492 20.8751 26.4259 20.7987C26.6071 20.72 26.7894 20.6424 26.9718 20.5649C27.0299 20.5405 27.087 20.5161 27.1451 20.4918C27.4012 20.3843 27.6574 20.279 27.9135 20.1771C27.9303 20.1704 27.947 20.1638 27.9649 20.1572C28.2792 20.0319 28.5935 19.9101 28.9067 19.7926C28.976 19.7671 29.0454 19.7394 29.1147 19.714C29.1404 19.704 29.1673 19.6951 29.193 19.6852C29.4066 19.6065 29.6202 19.5289 29.8339 19.4547C29.9468 19.4148 30.0587 19.376 30.1716 19.3373C30.2734 19.3018 30.3752 19.2675 30.477 19.2342C30.6045 19.191 30.732 19.1489 30.8595 19.1079C31.0877 19.0337 31.3147 18.9617 31.5418 18.8919C32.0596 18.7323 32.573 18.5838 33.0785 18.4476C33.0416 19.2065 33.1288 19.9688 33.3369 20.7045ZM21.9991 11.5405C21.9052 11.5594 21.8101 11.5782 21.7161 11.5981C20.8124 11.7876 19.8919 12.0081 18.9748 12.253C18.9636 12.2108 18.9524 12.1699 18.9412 12.1278C18.7835 11.5749 18.5442 11.0043 18.2031 10.4414C18.3026 10.437 18.4022 10.4348 18.5017 10.4348C19.8204 10.4348 21.0227 10.8303 21.9532 11.5062C21.9667 11.5173 21.9823 11.5295 21.9991 11.5405ZM29.778 10.6597C29.6941 10.6597 29.6091 10.6608 29.5241 10.6619C29.4525 10.663 29.3798 10.6641 29.3082 10.6663C29.2478 10.6675 29.1874 10.6686 29.127 10.6708C29.0979 10.6719 29.07 10.6719 29.0409 10.673C29.0979 10.6508 29.1539 10.6298 29.2109 10.6076C29.4245 10.5234 29.637 10.4381 29.8495 10.3517L29.778 10.6597ZM25.0379 17.8903C25.0234 17.8725 25.0111 17.8559 24.9966 17.8382C25.0189 17.8338 25.0413 17.8304 25.0648 17.826C25.3187 17.7795 25.5737 17.7473 25.8298 17.7318C25.9584 17.7241 26.0871 17.7185 26.2157 17.7185C26.3309 17.7185 26.4438 17.723 26.5568 17.7285C26.729 17.7385 26.899 17.7562 27.0668 17.7795C27.1138 17.7861 27.1597 17.7928 27.2055 17.8005C27.2469 17.8072 27.2894 17.8138 27.3308 17.8205C27.3408 17.8227 27.3509 17.8249 27.361 17.8271C27.6238 17.8781 27.8788 17.9468 28.1249 18.031C28.1808 18.0498 28.2367 18.0686 28.2915 18.0886C28.3721 18.1185 28.4503 18.1528 28.5275 18.1861C28.6002 18.2182 28.6729 18.2515 28.7434 18.2858C28.7993 18.3135 28.8563 18.3401 28.91 18.3689C28.8306 18.3977 28.7512 18.4265 28.6718 18.4553C28.6629 18.4586 28.6528 18.462 28.6438 18.4653C28.5387 18.5041 28.4313 18.5451 28.3262 18.5861C28.2669 18.6082 28.2076 18.6304 28.1484 18.6536C28.126 18.6625 28.1036 18.6703 28.0813 18.6791C27.9907 18.7135 27.9001 18.75 27.8095 18.7855C27.5198 18.8985 27.229 19.0159 26.9371 19.1345C26.7693 19.2032 26.6004 19.2741 26.4327 19.345C26.2984 19.4015 26.1642 19.458 26.03 19.5156C26.0222 19.4968 26.0144 19.4791 26.0054 19.4602C25.9763 19.3949 25.9461 19.3295 25.9148 19.263C25.8488 19.1267 25.7784 18.9905 25.7012 18.8531C25.6374 18.7423 25.5692 18.6315 25.4987 18.5218C25.4428 18.4354 25.3847 18.3501 25.3231 18.2636C25.2348 18.1407 25.1397 18.0144 25.0379 17.8903ZM34.2137 14.4401C34.1903 14.46 34.1679 14.48 34.1433 14.501C34.1321 14.5099 34.122 14.5187 34.1108 14.5287C33.6198 14.9364 32.9152 15.3929 31.9791 15.8716C31.8874 15.9181 31.7934 15.9657 31.6972 16.0123C31.6659 16.0278 31.6357 16.0433 31.6033 16.0588C31.4814 16.1175 31.355 16.1774 31.2252 16.2372C31.1738 16.2616 31.1201 16.2848 31.0675 16.3092C30.987 16.3458 30.9054 16.3823 30.8215 16.4189C30.7555 16.4477 30.6906 16.4765 30.6224 16.5053C30.5631 16.5308 30.5027 16.5552 30.4423 16.5806C30.3808 16.6061 30.3193 16.6327 30.2555 16.6582C30.1325 16.7092 30.0072 16.759 29.8786 16.81C29.8685 16.8144 29.8585 16.8178 29.8484 16.8222C29.7142 16.8754 29.5766 16.9263 29.4402 16.9784C29.3764 17.0028 29.3127 17.0261 29.2478 17.0504C28.9078 16.8909 28.5499 16.7579 28.1774 16.6549C27.8262 16.092 27.5712 15.4716 27.4314 14.8168C27.2368 13.9105 27.267 12.9753 27.5142 12.0901C27.5276 12.089 27.5422 12.0879 27.5556 12.0868C27.7267 12.0735 27.8967 12.0613 28.0645 12.0513C28.098 12.0491 28.1305 12.0469 28.164 12.0447C28.3553 12.0336 28.5443 12.0236 28.7311 12.0158C28.7434 12.0158 28.7557 12.0147 28.768 12.0147C28.9425 12.0081 29.1158 12.0026 29.287 11.9981C29.3127 11.997 29.3395 11.997 29.3652 11.9959C29.4715 11.9937 29.5755 11.9937 29.6795 11.9926C29.7567 11.9915 29.835 11.9904 29.911 11.9904C30.7052 11.9904 31.3841 12.0258 31.9634 12.0868C34.1556 12.3139 34.9094 12.8922 34.981 13.2313C34.9844 13.2479 34.9855 13.2656 34.9877 13.2834C34.9933 13.3565 34.981 13.4385 34.9486 13.5282C34.8602 13.7764 34.6186 14.0877 34.2137 14.4401ZM32.2665 9.81211C32.1804 10.1866 31.9567 10.5057 31.657 10.7206C31.487 10.7073 31.3169 10.6963 31.1481 10.6874L31.3762 9.69467C31.7229 9.53955 32.0652 9.38 32.4041 9.21824L32.2665 9.81211ZM9.70952 23.06C10.1043 22.4528 10.3728 21.7737 10.5137 21.0502C11.3111 21.1399 12.2272 21.1853 13.2573 21.1853C16.2961 21.1853 19.9568 20.7865 23.3323 20.0918C23.5045 20.2247 23.6712 20.3699 23.83 20.5261C22.0718 21.377 20.4131 22.2922 19.0274 23.1885C18.297 23.6616 17.6651 24.1115 17.1294 24.538C16.0288 23.388 14.539 22.7453 12.849 22.7453C11.9531 22.7453 11.0136 22.9248 10.0551 23.2794C9.80571 23.3725 9.56077 23.4755 9.3203 23.5863C9.46011 23.419 9.58985 23.2439 9.70952 23.06ZM10.5249 24.5247C11.3313 24.2256 12.1131 24.0749 12.849 24.0749C14.1531 24.0749 15.2817 24.5491 16.1283 25.42C16.2827 25.5784 16.4281 25.7501 16.5634 25.9352C16.6439 26.0449 16.7211 26.1601 16.7938 26.2797C16.8408 26.3562 16.8855 26.4338 16.9303 26.5135C16.9985 26.6365 17.0622 26.7639 17.1226 26.8958C17.1808 27.0221 17.2345 27.1517 17.2848 27.2858C17.315 27.3667 17.3441 27.4486 17.3709 27.5295C17.4168 27.6669 17.4548 27.8032 17.4895 27.9395C17.5029 27.9927 17.5152 28.0458 17.5275 28.099C17.5779 28.3262 17.6136 28.5522 17.6338 28.776C17.6405 28.8513 17.645 28.9256 17.6483 28.9998C17.655 29.1483 17.6539 29.2956 17.6461 29.4419C17.6371 29.6214 17.6159 29.7975 17.5857 29.9715C17.523 30.3327 17.4157 30.6828 17.2636 31.0185C17.0432 31.5016 16.7312 31.9414 16.3364 32.3348C15.5926 32.43 14.879 32.5419 14.2046 32.666C14.5468 31.3742 14.4786 29.9139 13.9529 28.5189C13.2573 26.6753 11.8838 25.266 10.2688 24.6233C10.3538 24.5901 10.4388 24.5569 10.5249 24.5247ZM36.3511 25.041L36.3835 24.9092C36.4283 24.9435 36.473 24.979 36.5166 25.0145C36.4618 25.0233 36.4059 25.0322 36.3511 25.041ZM43.3057 17.4715C43.271 17.487 43.2363 17.5014 43.2016 17.5169C42.7442 16.5795 41.4747 16.1031 39.4213 16.1031C39.3251 16.1031 39.2267 16.1042 39.1271 16.1064C39.1215 16.1064 39.117 16.1064 39.1115 16.1064C39.0052 16.1087 38.8967 16.1131 38.7871 16.1175C38.7289 16.1197 38.6697 16.1231 38.6104 16.1264C38.5645 16.1286 38.5187 16.1319 38.4717 16.1341C38.3912 16.1386 38.3106 16.1441 38.229 16.1508C38.2256 16.1508 38.2223 16.1508 38.2189 16.1519C36.3936 16.2881 34.2182 16.7169 31.8985 17.3917C33.5662 16.6183 35.2371 15.6156 35.9619 14.4788C36.303 14.2838 36.6497 14.0911 36.9998 13.9016C37.2034 13.7908 37.4092 13.6811 37.615 13.5725C37.8196 13.4651 38.0243 13.3587 38.2301 13.2534C39.0992 12.8103 39.9771 12.3903 40.8451 12.0059C41.1895 11.8541 41.534 11.7067 41.8774 11.5649C42.1022 11.4718 42.3259 11.3821 42.5485 11.2935C42.7722 11.2048 42.9947 11.1184 43.2173 11.0353C43.724 10.8436 44.2273 10.6652 44.7216 10.499C44.7339 11.4585 44.9431 12.4092 45.3412 13.2944C45.4732 13.588 45.6253 13.8717 45.7953 14.1431C45.9609 14.4079 46.1443 14.6606 46.3423 14.901C46.5536 15.1569 46.7829 15.3973 47.029 15.6212C46.9932 15.6411 46.9574 15.661 46.9205 15.681C46.7102 15.7973 46.4977 15.9125 46.2819 16.0267C46.0336 16.1585 45.7819 16.2881 45.5269 16.4167C45.2797 16.5419 45.0292 16.6649 44.7764 16.7867C44.2966 17.0227 43.8067 17.251 43.3057 17.4715ZM40.5599 10.6796C40.4737 10.7173 40.3865 10.755 40.3004 10.7927C39.4571 11.1649 38.6026 11.5716 37.757 12.0003C37.4796 11.4541 37.1061 10.9046 36.6184 10.3871C37.1385 10.2509 37.6698 10.1822 38.2044 10.1822C39.0578 10.1833 39.8575 10.3594 40.5599 10.6796ZM49.2905 9.30688C49.3431 9.29802 49.3968 9.28804 49.4493 9.28029C49.4851 9.27475 49.5187 9.26921 49.5545 9.26367C49.6316 9.25148 49.7088 9.23929 49.7849 9.22822C49.8106 9.22489 49.8374 9.22046 49.8632 9.21714C49.9459 9.20606 50.0287 9.19387 50.1092 9.1839C50.1316 9.18057 50.1551 9.17836 50.1774 9.17503C50.2591 9.16506 50.3407 9.1562 50.4201 9.14733C50.4425 9.14512 50.4649 9.1429 50.4873 9.14069C50.5655 9.13293 50.6427 9.12628 50.7188 9.11963C50.7423 9.11742 50.7646 9.1152 50.7881 9.11409C50.8619 9.10855 50.9346 9.10301 51.0062 9.09969C51.0297 9.09858 51.0532 9.09637 51.0767 9.09526C51.1483 9.09083 51.2176 9.08861 51.2869 9.0864C51.3093 9.08529 51.3317 9.08418 51.3529 9.08418C51.4413 9.08196 51.5285 9.07975 51.6147 9.07975C52.5732 9.07975 53.1447 9.23929 53.4266 9.43208C53.4299 9.4343 53.4333 9.43651 53.4366 9.43873C53.4456 9.44427 53.4523 9.45092 53.4601 9.45645C53.5172 9.49967 53.5619 9.54398 53.5921 9.58941C53.5977 9.59827 53.601 9.60603 53.6055 9.61489C53.61 9.62376 53.6156 9.63262 53.62 9.64038C53.6268 9.65589 53.6324 9.67251 53.6368 9.68913C53.7174 9.95615 53.5597 10.4027 53.1223 10.9854C53.1056 11.0087 53.0877 11.032 53.0698 11.0552C53.0597 11.0674 53.0508 11.0796 53.0407 11.0929C52.647 11.5926 52.0542 12.1854 51.2411 12.8457C51.1606 12.9111 51.0778 12.9764 50.9928 13.0429C50.966 13.064 50.9391 13.085 50.9112 13.1072C50.8049 13.1903 50.6931 13.2745 50.5801 13.3587C50.5342 13.393 50.4861 13.4285 50.4392 13.4628C50.3687 13.5138 50.2982 13.5659 50.2255 13.618C50.1663 13.6612 50.107 13.7033 50.0455 13.7465C49.9974 13.7797 49.9482 13.8141 49.9001 13.8484C49.8151 13.9082 49.7278 13.967 49.6406 14.0268C49.5533 14.0855 49.465 14.1454 49.3744 14.2052C49.3699 14.2085 49.3654 14.2107 49.3621 14.214C49.0948 14.3902 48.8129 14.5708 48.5177 14.7525C48.4315 14.8057 48.3454 14.8589 48.2571 14.9132C48.0882 14.7802 47.9282 14.6373 47.7761 14.4866C47.2739 13.9902 46.8646 13.4052 46.5715 12.7549C46.1913 11.9095 46.0224 10.991 46.0772 10.0747C46.0772 10.0736 46.0772 10.0725 46.0772 10.0714C47.2236 9.73123 48.3107 9.47418 49.2905 9.30688Z" fill="#E1A772"/>
<path d="M48.4536 13.1038C48.6639 13.1038 48.8675 13.0606 49.0599 12.9753C49.4234 12.8147 49.7018 12.5233 49.8439 12.1554C49.9859 11.7876 49.9759 11.3865 49.8137 11.0264C49.5743 10.4957 49.0408 10.1522 48.4536 10.1522C48.2434 10.1522 48.0398 10.1954 47.8474 10.2807C47.4839 10.4414 47.2055 10.7328 47.0634 11.1006C46.9214 11.4685 46.9314 11.8696 47.0936 12.2297C47.3318 12.7604 47.8665 13.1038 48.4536 13.1038ZM48.3161 11.5771C48.3261 11.5516 48.3474 11.5161 48.3933 11.4962C48.4123 11.4873 48.4324 11.4829 48.4525 11.4829C48.4961 11.4829 48.5588 11.505 48.5867 11.5693C48.6069 11.6147 48.6002 11.6546 48.5901 11.6801C48.58 11.7056 48.5588 11.7399 48.5129 11.761C48.4939 11.7698 48.4738 11.7743 48.4536 11.7743C48.41 11.7743 48.3474 11.7521 48.3194 11.6879C48.2982 11.6424 48.306 11.6025 48.3161 11.5771Z" fill="#E1A772"/>
<path d="M29.5126 12.6285C29.4086 12.6285 29.3046 12.6396 29.2028 12.6607C28.3998 12.8291 27.8853 13.6135 28.0553 14.4101C28.2007 15.0871 28.8125 15.579 29.5115 15.579C29.6155 15.579 29.7196 15.568 29.8213 15.5469C30.6244 15.3785 31.1389 14.5941 30.9689 13.7974C30.8235 13.1205 30.2117 12.6285 29.5126 12.6285ZM29.5428 14.2462C29.4724 14.2617 29.3874 14.2229 29.3684 14.1343C29.3516 14.0556 29.4019 13.978 29.4813 13.9614C29.4914 13.9592 29.5026 13.9581 29.5126 13.9581C29.5719 13.9581 29.639 13.998 29.6558 14.0733C29.6726 14.152 29.6223 14.2295 29.5428 14.2462Z" fill="#E1A772"/>
<path d="M42.4442 28.151C42.5639 28.8668 43.1813 29.3853 43.9128 29.3853C43.9944 29.3853 44.0761 29.3787 44.1566 29.3654C44.9663 29.2324 45.5166 28.4723 45.3824 27.6702C45.2627 26.9544 44.6453 26.4359 43.9139 26.4359C43.8322 26.4359 43.7506 26.4426 43.6701 26.4559C42.8603 26.5877 42.31 27.3489 42.4442 28.151ZM43.8893 27.7666C43.8971 27.7655 43.9061 27.7644 43.9139 27.7644C43.9743 27.7644 44.0447 27.8065 44.0582 27.8862C44.0716 27.9649 44.0168 28.0402 43.9374 28.0535C43.8669 28.0646 43.783 28.0236 43.7685 27.9339C43.7551 27.8552 43.8087 27.7799 43.8893 27.7666Z" fill="#E1A772"/>
<path d="M38.127 19.2852C37.9111 18.7113 37.3496 18.3257 36.7323 18.3257C36.5544 18.3257 36.3788 18.3567 36.2111 18.4188C35.8386 18.5572 35.5422 18.8298 35.3778 19.1888C35.2223 19.5256 35.2022 19.9001 35.3163 20.2513C35.323 20.2735 35.3297 20.2956 35.3375 20.3178C35.4147 20.5217 35.5355 20.7 35.6854 20.8474C35.9415 21.0978 36.2849 21.254 36.6551 21.2729C36.6808 21.274 36.7065 21.2762 36.7323 21.2762C36.9101 21.2762 37.0857 21.2452 37.2535 21.1831C37.3798 21.1366 37.495 21.0734 37.5991 20.9981C37.8999 20.7843 38.1057 20.4685 38.184 20.1195C38.2343 19.8946 38.2332 19.6552 38.1706 19.4215C38.1583 19.376 38.1437 19.3306 38.127 19.2852ZM36.7837 19.9378C36.7669 19.9444 36.749 19.9466 36.7323 19.9466C36.6942 19.9466 36.6506 19.93 36.6204 19.8957C36.6103 19.8835 36.6014 19.8691 36.5947 19.8525C36.5768 19.8059 36.5869 19.766 36.5992 19.7417C36.6103 19.7173 36.6338 19.6829 36.6819 19.6663C36.6987 19.6597 36.7166 19.6563 36.7334 19.6563C36.7837 19.6563 36.8463 19.6852 36.8709 19.7516C36.8799 19.7749 36.8799 19.7993 36.8765 19.8225C36.8676 19.8735 36.8352 19.9189 36.7837 19.9378Z" fill="#E1A772"/>
<path d="M31.6869 34.7081C30.8582 34.6837 30.1793 35.3219 30.1558 36.1396C30.1323 36.9528 30.781 37.6331 31.6019 37.6564C31.6165 37.6564 31.631 37.6575 31.6444 37.6575C32.4553 37.6575 33.1096 37.0281 33.132 36.2249C33.1432 35.8315 32.9989 35.4559 32.726 35.1701C32.4531 34.8842 32.084 34.7203 31.6869 34.7081ZM31.6444 36.3279H31.64C31.5594 36.3257 31.4946 36.2581 31.4979 36.1783C31.5002 36.1008 31.5661 36.0376 31.6489 36.0376C31.6992 36.0387 31.7328 36.0631 31.7518 36.0831C31.7708 36.103 31.7932 36.1373 31.7921 36.1872C31.7887 36.2648 31.7227 36.3279 31.6444 36.3279Z" fill="#E1A772"/>
</g>
<defs>
<clipPath id="clip0_1_1376">
<rect width="55" height="43" fill="white"/>
</clipPath>
</defs>
</svg>
