<svg width="22" height="22" viewBox="0 0 22 22" fill="none" xmlns="http://www.w3.org/2000/svg">
<path d="M11.0002 1C16.5233 1 21.0003 5.47691 21 11C21.0003 16.5234 16.523 21.0006 10.9998 21C5.47634 21.0003 0.999679 16.5234 1 11.0003C0.999036 5.47691 5.47634 1 11.0002 1Z" stroke="#E1A772" stroke-miterlimit="10"/>
<path d="M10.9999 1.03662V20.964" stroke="#E1A772" stroke-miterlimit="10"/>
<path d="M20.9637 11H1.03601" stroke="#E1A772" stroke-miterlimit="10"/>
<path d="M10.357 1.03662C10.357 1.03662 5.85724 4.57212 5.85724 11.0003C5.85724 17.4285 10.357 20.964 10.357 20.964" stroke="#E1A772" stroke-miterlimit="10"/>
<path d="M11.6427 1.03662C11.6427 1.03662 16.1425 4.57212 16.1425 11.0003C16.1425 17.4285 11.6427 20.964 11.6427 20.964" stroke="#E1A772" stroke-miterlimit="10"/>
<path d="M3.28589 4.57227C3.28589 4.57227 4.89296 7.78636 10.9998 7.78636C17.1067 7.78636 18.7138 4.57227 18.7138 4.57227" stroke="#E1A772" stroke-miterlimit="10"/>
<path d="M3.28589 17.4284C3.28589 17.4284 4.89296 14.2144 10.9998 14.2144C17.1067 14.2144 18.7138 17.4284 18.7138 17.4284" stroke="#E1A772" stroke-miterlimit="10"/>
</svg>
