<svg width="44" height="53" viewBox="0 0 44 53" fill="none" xmlns="http://www.w3.org/2000/svg">
<path d="M37.8076 0.00128421C37.6321 -0.00852999 37.4599 0.0514457 37.3296 0.167035C37.1994 0.282625 37.1199 0.445105 37.1111 0.618489L36.9488 3.57038C36.9411 3.60419 36.9356 3.63908 36.9334 3.67398L36.8716 4.80479C35.4929 4.8844 34.1827 5.43181 33.1495 6.36634C32.0137 7.39466 31.3437 8.77955 31.262 10.2659C31.177 11.811 31.7057 13.2952 32.7521 14.4467C33.2113 14.9527 33.7467 15.3671 34.3339 15.6811L33.6926 19.175L30.8359 19.2775V7.12313C30.8359 4.82442 28.9429 2.95427 26.6161 2.95427C24.6038 2.95427 22.9172 4.35334 22.4978 6.21804C22.3355 6.19187 22.1699 6.17878 21.9999 6.17878C21.83 6.17878 21.6633 6.19296 21.5021 6.21804C21.0827 4.35334 19.3961 2.95427 17.3838 2.95427C15.057 2.95427 13.164 4.82442 13.164 7.12313V19.2775L10.3073 19.175L9.666 15.6811C10.2543 15.3682 10.7886 14.9527 11.2478 14.4467C12.2931 13.2952 12.8229 11.81 12.7379 10.2659C12.6562 8.77955 11.9851 7.39466 10.8504 6.36634C9.81832 5.43181 8.507 4.8844 7.12834 4.80479L7.06653 3.67507C7.06432 3.63908 7.0588 3.60528 7.05107 3.57148L6.88992 0.619579C6.87998 0.446195 6.80161 0.283715 6.67136 0.168126C6.54111 0.0525362 6.37003 -0.00743953 6.19342 0.00237468C2.53871 0.197568 -0.232956 4.02838 0.0154013 8.54074C0.216294 12.1894 2.3058 15.1795 5.04766 16.09L6.19452 21.936C6.19673 21.9491 6.20004 21.9622 6.20335 21.9742C6.45723 22.9513 7.3469 23.6579 8.36681 23.695L12.2246 23.8345C12.1451 24.6186 12.2434 25.4212 12.5326 26.1801L13.1618 27.8311V38.3029L9.56886 46.7965C9.42757 47.1302 9.58652 47.513 9.92429 47.6525C10.0082 47.6874 10.0943 47.7038 10.1793 47.7038C10.4387 47.7038 10.6848 47.5522 10.7908 47.3014L14.4356 38.6867C14.4698 38.6071 14.4863 38.521 14.4863 38.4348V31.3075L19.2437 43.7868C16.4886 44.6483 15.3561 46.8194 15.1961 47.1542C14.4687 48.4006 14.7534 49.96 15.8826 50.8749C16.4114 51.3034 17.0781 51.539 17.7613 51.539C18.2459 51.539 18.7139 51.4234 19.13 51.2096C19.5793 52.2609 20.6345 53.0013 21.8609 53.0013H22.1357C23.362 53.0013 24.4173 52.2609 24.8665 51.2096C25.2838 51.4234 25.7507 51.539 26.2353 51.539C26.9174 51.539 27.5852 51.3034 28.1139 50.8749C29.242 49.96 29.5279 48.4006 28.8005 47.1542C28.6405 46.8205 27.5079 44.6494 24.7528 43.7879L27.3722 36.9169L29.5103 31.3097V38.4381C29.5103 38.5242 29.5279 38.6104 29.561 38.69L33.2058 47.3047C33.3118 47.5555 33.5579 47.7071 33.8173 47.7071C33.9023 47.7071 33.9895 47.6907 34.0723 47.6558C34.4101 47.5162 34.569 47.1335 34.4277 46.7998L30.8348 38.3061V27.8344L31.464 26.1834C31.7532 25.4244 31.8525 24.6219 31.7731 23.8378L35.6309 23.6982C36.6508 23.6612 37.5405 22.9534 37.7943 21.9775C37.7976 21.9644 37.801 21.9524 37.8032 21.9393L38.95 16.0933C41.6919 15.1828 43.7814 12.1927 43.9823 8.54401C44.2328 4.02838 41.4623 0.197568 37.8076 0.00128421ZM42.6621 8.46986C42.5628 10.2844 41.9248 11.9681 40.8662 13.2123C40.3828 13.7804 39.8364 14.2253 39.2525 14.5383C39.014 14.6659 38.7701 14.7717 38.5206 14.8535C38.2888 14.9298 38.0515 14.9865 37.8131 15.0225C37.5383 15.0639 37.2601 15.0781 36.9797 15.0628L36.8693 15.0574C36.5117 15.0377 36.1629 14.9778 35.8274 14.8796C35.611 14.8164 35.4002 14.739 35.1971 14.6452C34.9851 14.5481 34.7809 14.4347 34.5867 14.3049C34.2776 14.0999 33.9928 13.8546 33.7378 13.5743C32.9288 12.6834 32.5192 11.5341 32.5844 10.3378C32.7058 8.13944 34.5558 6.32818 36.7987 6.12317L36.579 10.1143C36.5592 10.4752 36.8395 10.7838 37.2049 10.8035C37.217 10.8045 37.2292 10.8045 37.2413 10.8045C37.5901 10.8045 37.8826 10.5341 37.9025 10.1863L38.1553 5.59756C38.163 5.56376 38.1685 5.52886 38.1707 5.49397L38.3959 1.39817C40.9843 1.95976 42.8542 4.96836 42.6621 8.46986ZM35.5834 22.3886L31.4695 22.5369C31.3194 22.14 31.1196 21.7572 30.869 21.4006C30.858 21.3854 30.847 21.3712 30.8359 21.3559C30.6417 21.0855 30.4242 20.8368 30.1858 20.6111L30.8359 20.5882L34.2732 20.4639C34.5845 20.453 34.845 20.2295 34.9013 19.9263L35.59 16.1729C35.9808 16.2765 36.3848 16.3409 36.7976 16.3638L36.908 16.3692C37.0051 16.3747 37.1045 16.3768 37.2027 16.3768C37.3197 16.3768 37.4345 16.3725 37.5504 16.3659L36.5106 21.6656C36.3936 22.0767 36.0161 22.3722 35.5834 22.3886ZM30.2255 25.72L29.5114 27.5945L29.3623 27.986L26.9605 26.9413C25.4107 26.2674 23.766 25.9261 22.0717 25.9261C20.4469 25.9261 18.864 26.2412 17.3662 26.8639L14.6409 27.9958L14.4874 27.5945L13.7733 25.72C13.5437 25.1169 13.4686 24.491 13.5437 23.8825C13.5713 23.6633 13.6176 23.4463 13.6839 23.2326C13.7523 23.0123 13.8406 22.7964 13.9499 22.5871C14.0293 22.4355 14.1177 22.2872 14.2181 22.1443C14.302 22.0244 14.3925 21.911 14.4863 21.803C14.6905 21.5686 14.919 21.3635 15.1674 21.188C15.3881 21.032 15.6244 20.899 15.8727 20.7921C15.9147 20.7747 15.9566 20.7572 15.9985 20.7409C16.1994 20.6624 16.4092 20.6013 16.6233 20.5577C16.6675 20.549 16.7116 20.5392 16.7558 20.5315C16.9589 20.4966 17.1675 20.4781 17.3794 20.4748C17.4026 20.4748 17.4247 20.4726 17.4467 20.4726H26.5476C26.5708 20.4726 26.5929 20.4737 26.615 20.4748C26.8269 20.4781 27.0355 20.4966 27.2386 20.5315C27.2828 20.5392 27.3269 20.549 27.3711 20.5577C27.5863 20.6024 27.7949 20.6635 27.9958 20.7409C28.0378 20.7572 28.0797 20.7747 28.1217 20.7921C28.37 20.899 28.6062 21.031 28.827 21.188C29.0754 21.3635 29.3038 21.5696 29.508 21.803C29.603 21.911 29.6924 22.0244 29.7763 22.1443C29.8767 22.2883 29.9661 22.4355 30.0445 22.5871C30.1538 22.7964 30.2432 23.0112 30.3105 23.2326C30.3767 23.4452 30.4242 23.6623 30.4507 23.8825C30.5302 24.491 30.4551 25.1169 30.2255 25.72ZM27.6437 47.7899C28.0521 48.4704 27.8932 49.3613 27.275 49.8629C26.9781 50.1028 26.6194 50.2304 26.2375 50.2304C25.7441 50.2304 25.2827 50.0145 24.9703 49.6383C24.85 49.4943 24.6734 49.4071 24.4846 49.3995C24.297 49.3929 24.1126 49.4649 23.9813 49.599L23.9614 49.6197C23.8422 49.7419 23.776 49.9044 23.776 50.0734C23.776 50.9654 23.0408 51.6916 22.1379 51.6916H21.8631C20.9602 51.6916 20.225 50.9654 20.225 50.0734C20.225 49.9044 20.1588 49.7419 20.0407 49.6197L20.0208 49.599C19.8961 49.4703 19.7228 49.3984 19.5429 49.3984C19.534 49.3984 19.5252 49.3984 19.5164 49.3984C19.3276 49.406 19.151 49.4922 19.0307 49.6372C18.7183 50.0134 18.2558 50.2293 17.7635 50.2293C17.3805 50.2293 17.0218 50.1028 16.726 49.8618C16.1078 49.3602 15.9489 48.4693 16.3573 47.7888C16.3694 47.7681 16.3816 47.7441 16.3926 47.7223C16.4379 47.6242 17.3353 45.7311 19.7162 45.0136C19.9215 44.9515 20.1367 44.8991 20.3641 44.8566C20.5782 44.8162 20.8034 44.7868 21.0374 44.7672C21.2339 44.7508 21.437 44.741 21.6489 44.741C21.6854 44.741 21.7218 44.741 21.767 44.7421H22.2439C22.2803 44.7421 22.3167 44.741 22.3532 44.741C22.5651 44.741 22.7682 44.7508 22.9647 44.7672C23.1998 44.7868 23.4239 44.8162 23.638 44.8566C23.8654 44.8991 24.0806 44.9515 24.2859 45.0136C26.6668 45.7311 27.5642 47.6231 27.6084 47.7191C27.6183 47.7441 27.6305 47.767 27.6437 47.7899ZM7.49149 21.6656L6.45171 16.3659C6.5665 16.3736 6.6824 16.3768 6.79941 16.3768C6.89654 16.3768 6.99588 16.3747 7.09412 16.3692L7.2045 16.3638C7.61733 16.3419 8.02132 16.2765 8.41207 16.1729L9.10085 19.9263C9.15604 20.2284 9.41764 20.4519 9.72891 20.4639L13.1662 20.5882L13.8163 20.6111C13.579 20.8368 13.3604 21.0855 13.1662 21.3559C13.1551 21.3712 13.143 21.3854 13.1331 21.4006C12.8836 21.7572 12.6827 22.14 12.5326 22.5369L8.41869 22.3886C7.98379 22.3722 7.60629 22.0767 7.49149 21.6656ZM4.74743 14.5372C4.16351 14.2243 3.61602 13.7793 3.13366 13.2123C2.07511 11.9681 1.43711 10.2844 1.33776 8.46986C1.1446 4.96727 3.01445 1.95976 5.60509 1.39599L5.83026 5.49179C5.83247 5.52668 5.83799 5.56158 5.84572 5.59538L6.09849 10.1841C6.11725 10.533 6.40976 10.8024 6.75967 10.8024C6.77181 10.8024 6.78395 10.8024 6.79609 10.8013C7.16146 10.7816 7.44182 10.473 7.42195 10.1121L7.2023 6.12099C9.44523 6.32491 11.2963 8.13726 11.4166 10.3356C11.4829 11.5308 11.0734 12.6812 10.2632 13.5722C10.0082 13.8535 9.72339 14.0978 9.41433 14.3028C9.22006 14.4325 9.01585 14.5459 8.80392 14.643C8.60082 14.7368 8.38999 14.8153 8.17365 14.8774C7.83809 14.9745 7.48929 15.0356 7.13165 15.0552L7.02127 15.0606C6.94732 15.065 6.87336 15.0661 6.79941 15.0661C6.5941 15.0661 6.38989 15.0486 6.1879 15.0181C5.94837 14.9821 5.71216 14.9265 5.48036 14.8491C5.22979 14.7706 4.98585 14.6648 4.74743 14.5372ZM21.9999 7.48843C22.128 7.48843 22.2627 7.5037 22.3962 7.53532C22.8753 7.64655 23.3576 7.9726 23.5607 8.63015L23.7208 9.14813L24.7539 12.4904C24.3522 12.666 23.9989 12.931 23.7208 13.2592C23.308 13.7466 23.0585 14.3747 23.0585 15.0585C23.0585 15.246 23.0773 15.4292 23.1126 15.6059C23.3709 16.8926 24.5221 17.8664 25.9008 17.8664C26.0719 17.8664 26.2397 17.8501 26.403 17.8217L26.8214 19.1728C26.7309 19.1684 26.6415 19.1641 26.5498 19.1641H17.4489C17.3584 19.1641 17.2679 19.1673 17.1774 19.1728L17.5958 17.8217C17.7591 17.8511 17.9269 17.8664 18.098 17.8664C19.4755 17.8664 20.6268 16.8926 20.8862 15.6059C20.9215 15.4292 20.9403 15.246 20.9403 15.0585C20.9403 14.3747 20.6908 13.7466 20.278 13.2592C19.9998 12.931 19.6466 12.666 19.2448 12.4904L20.278 9.14813L20.4381 8.63015C20.6412 7.9726 21.1235 7.64655 21.6026 7.53532C21.7372 7.5037 21.8719 7.48843 21.9999 7.48843ZM26.6459 16.3627C26.456 16.4684 26.2408 16.535 26.0112 16.5513C25.9748 16.5535 25.9383 16.5568 25.9008 16.5568C25.0939 16.5568 24.4349 15.9319 24.3875 15.1457C24.6469 15.5917 25.1326 15.8938 25.69 15.8938C25.7297 15.8938 25.7683 15.8905 25.8059 15.8883C26.0355 15.8709 26.2496 15.8022 26.4384 15.6942C26.6569 15.5688 26.8401 15.3911 26.9715 15.1784C27.1095 14.9538 27.1912 14.6921 27.1912 14.4107C27.1912 14.3595 27.189 14.3082 27.1834 14.2591C27.3313 14.4903 27.4185 14.764 27.4185 15.0574C27.4185 15.3518 27.3313 15.6266 27.1812 15.8578C27.0477 16.0671 26.8633 16.2416 26.6459 16.3627ZM25.69 14.2362C25.7871 14.2362 25.8666 14.3148 25.8666 14.4107C25.8666 14.5067 25.7871 14.5852 25.69 14.5852C25.5928 14.5852 25.5134 14.5067 25.5134 14.4107C25.5134 14.3148 25.5928 14.2362 25.69 14.2362ZM17.9037 14.4107C17.9037 14.3398 17.9468 14.2799 18.0075 14.2526C18.0296 14.2428 18.0549 14.2362 18.0803 14.2362C18.1775 14.2362 18.2569 14.3148 18.2569 14.4107C18.2569 14.5067 18.1775 14.5852 18.0803 14.5852C18.0163 14.5852 17.9611 14.5514 17.9302 14.5012C17.9137 14.4751 17.9037 14.4445 17.9037 14.4107ZM16.6167 14.7368C16.6741 14.9865 16.7944 15.2111 16.9611 15.3954C17.1167 15.5677 17.311 15.704 17.5317 15.7902C17.7017 15.8567 17.8872 15.8938 18.0803 15.8938C18.119 15.8938 18.1565 15.8905 18.194 15.8883C18.8861 15.8371 19.4468 15.3213 19.5594 14.655C19.5959 14.7837 19.6168 14.9178 19.6168 15.0574C19.6168 15.8839 18.9358 16.5568 18.0991 16.5568C18.0616 16.5568 18.0251 16.5535 17.9887 16.5513C17.7591 16.535 17.545 16.4684 17.3551 16.3627C17.1366 16.2405 16.9522 16.0671 16.8187 15.8578C16.6697 15.6255 16.5814 15.3518 16.5814 15.0574C16.5814 14.9472 16.5935 14.8404 16.6167 14.7368ZM23.447 43.5033C23.1015 43.4597 22.7384 43.4335 22.3532 43.4335C22.3101 43.4335 22.2682 43.4335 22.2351 43.4346H21.7759C21.7328 43.4335 21.6898 43.4335 21.6478 43.4335C21.2626 43.4335 20.8995 43.4586 20.554 43.5033L18.0649 36.9758L19.5042 36.1623C20.2703 35.7294 21.1412 35.5004 22.0242 35.5004C22.926 35.5004 23.8146 35.7392 24.5917 36.1895L25.9372 36.9692L23.447 43.5033ZM26.4108 35.7272L25.2617 35.0609C24.2804 34.4928 23.1612 34.1918 22.0231 34.1918C20.9105 34.1918 19.8111 34.4808 18.8453 35.026L17.5913 35.7348L15.1078 29.2204L17.8794 28.0688C19.2139 27.5149 20.6235 27.2335 22.0717 27.2335C23.5806 27.2335 25.0454 27.5378 26.4262 28.1386L28.8943 29.2116L26.4108 35.7272ZM26.6161 4.26392C28.2122 4.26392 29.5114 5.5474 29.5114 7.12422V19.3266L28.5224 19.3625C28.4374 19.3658 28.3546 19.3734 28.2718 19.3854L27.6238 17.2896C28.3038 16.7759 28.7431 15.9668 28.7431 15.0585C28.7431 13.5656 27.5576 12.341 26.0675 12.256L24.8279 8.24849C24.6314 7.61275 24.2495 7.0926 23.7495 6.73165C23.9438 5.33912 25.1546 4.26392 26.6161 4.26392ZM14.4885 7.12313C14.4885 5.54631 15.7877 4.26283 17.3838 4.26283C18.8453 4.26283 20.0561 5.33803 20.2504 6.72947C19.7493 7.08932 19.3685 7.61057 19.172 8.24631L17.9324 12.2538C16.4423 12.3388 15.2568 13.5634 15.2568 15.0563C15.2568 15.9646 15.6961 16.7738 16.376 17.2874L15.7281 19.3833C15.6464 19.3713 15.5625 19.3636 15.4775 19.3604L14.4885 19.3244V7.12313Z" fill="#E1A772"/>
</svg>
