<svg width="32" height="42" viewBox="0 0 32 42" fill="none" xmlns="http://www.w3.org/2000/svg">
<path d="M28.9375 16.6875C28.9375 13.2563 27.5744 9.96556 25.1482 7.53931C22.7219 5.11305 19.4312 3.75 16 3.75C12.5688 3.75 9.27806 5.11305 6.85181 7.53931C4.42555 9.96556 3.0625 13.2563 3.0625 16.6875C3.0625 21.9947 7.30888 28.912 16 37.1978C24.6911 28.912 28.9375 21.9947 28.9375 16.6875ZM16 41.125C5.45738 31.5426 0.1875 23.3949 0.1875 16.6875C0.1875 12.4938 1.85346 8.47179 4.81887 5.50637C7.78429 2.54096 11.8063 0.875 16 0.875C20.1937 0.875 24.2157 2.54096 27.1811 5.50637C30.1465 8.47179 31.8125 12.4938 31.8125 16.6875C31.8125 23.3949 26.5426 31.5426 16 41.125Z" fill="#E1A772"/>
<path d="M16 21C17.1437 21 18.2406 20.5456 19.0494 19.7369C19.8581 18.9281 20.3125 17.8312 20.3125 16.6875C20.3125 15.5438 19.8581 14.4469 19.0494 13.6381C18.2406 12.8294 17.1437 12.375 16 12.375C14.8563 12.375 13.7594 12.8294 12.9506 13.6381C12.1419 14.4469 11.6875 15.5438 11.6875 16.6875C11.6875 17.8312 12.1419 18.9281 12.9506 19.7369C13.7594 20.5456 14.8563 21 16 21ZM16 23.875C14.0938 23.875 12.2656 23.1177 10.9177 21.7698C9.56975 20.4219 8.8125 18.5937 8.8125 16.6875C8.8125 14.7813 9.56975 12.9531 10.9177 11.6052C12.2656 10.2573 14.0938 9.5 16 9.5C17.9062 9.5 19.7344 10.2573 21.0823 11.6052C22.4302 12.9531 23.1875 14.7813 23.1875 16.6875C23.1875 18.5937 22.4302 20.4219 21.0823 21.7698C19.7344 23.1177 17.9062 23.875 16 23.875Z" fill="#E1A772"/>
</svg>
