<svg width="18" height="22" viewBox="0 0 18 22" fill="none" xmlns="http://www.w3.org/2000/svg">
<path d="M8.70536 0C13.5132 0 17.4107 3.89752 17.4107 8.70536C17.4107 12.3836 14.8263 16.3922 9.72339 20.7749C9.13785 21.2778 8.27284 21.2778 7.68497 20.7729L7.34769 20.4805C2.47065 16.2133 0 12.3016 0 8.70536C0 3.89752 3.89752 0 8.70536 0ZM8.70536 1.33929C4.63719 1.33929 1.33929 4.63719 1.33929 8.70536C1.33929 11.8322 3.61464 15.4346 8.22727 19.4705L8.5599 19.7589C8.64355 19.8307 8.76714 19.8307 8.85079 19.7589C13.6865 15.6056 16.0714 11.9066 16.0714 8.70536C16.0714 4.63719 12.7735 1.33929 8.70536 1.33929ZM8.70536 5.35714C10.5545 5.35714 12.0536 6.85619 12.0536 8.70536C12.0536 10.5545 10.5545 12.0536 8.70536 12.0536C6.85619 12.0536 5.35714 10.5545 5.35714 8.70536C5.35714 6.85619 6.85619 5.35714 8.70536 5.35714ZM8.70536 6.69643C7.59586 6.69643 6.69643 7.59586 6.69643 8.70536C6.69643 9.81486 7.59586 10.7143 8.70536 10.7143C9.81486 10.7143 10.7143 9.81486 10.7143 8.70536C10.7143 7.59586 9.81486 6.69643 8.70536 6.69643Z" fill="#E1A772"/>
</svg>
