<svg width="59" height="36" viewBox="0 0 59 36" fill="none" xmlns="http://www.w3.org/2000/svg">
<g clip-path="url(#clip0_1_1401)">
<path d="M47.2744 6.99693C45.8099 5.63013 43.8991 4.87604 41.8923 4.87604C41.6394 4.87604 41.3838 4.88816 41.131 4.9124C38.5481 5.16152 35.7813 5.51567 33.1498 6.01392C30.1302 4.04384 26.4844 2.21246 23.124 0.697539C22.0976 0.234308 21.0063 0 19.8785 0C18.7521 0 17.6608 0.234308 16.6331 0.697539C9.04676 4.1179 0 9.15823 0 13.7474C0 14.682 0.298854 15.6515 0.858698 16.6103C0.283979 17.6243 0 18.6531 0 19.7061C0 22.2728 2.23938 25.0939 5.9906 27.2525C9.91898 29.5134 14.8507 30.759 19.8799 30.759C22.0354 30.759 24.172 30.5288 26.2207 30.0898C28.64 31.905 31.4554 33.3889 34.471 34.411C37.5366 35.4506 40.8199 36 43.9653 36C50.5226 36 55.7086 33.7216 56.8688 30.3308C57.2082 29.3384 57.2731 28.2786 57.0622 27.1407C57.8925 26.4176 58.4888 25.5935 58.7985 24.6913C60.282 20.3471 53.3515 12.6715 47.2744 6.99693ZM57.2596 24.1701C57.1149 24.5943 56.8688 24.9996 56.5375 25.3821C56.3522 25.5948 56.1413 25.8022 55.9046 25.9988C55.7018 26.1685 55.4773 26.3314 55.238 26.489C55.2326 26.493 55.2258 26.497 55.2204 26.5011C54.9337 26.6883 54.624 26.866 54.2914 27.033C53.9628 27.1986 53.6112 27.3548 53.242 27.4989C51.2406 28.2813 48.6753 28.7445 45.8937 28.7445C42.9241 28.7445 39.822 28.2247 36.9227 27.2417C36.2519 27.0141 35.6015 26.7664 34.9727 26.5024C34.6738 26.3772 34.379 26.2466 34.0896 26.1146C33.7989 25.98 33.5122 25.8426 33.2309 25.7026C32.832 25.5019 32.4426 25.2959 32.0639 25.0831C31.7827 24.9256 31.5068 24.764 31.2363 24.5997C30.9578 24.43 30.686 24.259 30.4196 24.0839C30.0274 23.8267 29.6488 23.5628 29.285 23.2948C29.0172 23.0982 28.7576 22.8976 28.5047 22.6956C28.2532 22.495 28.0098 22.293 27.7731 22.0883C26.0517 20.6003 24.7265 19.0234 23.838 17.5287C23.6338 17.1853 23.4526 16.846 23.2957 16.5134C23.1375 16.1781 23.0023 15.8495 22.8914 15.529C22.8887 15.5209 22.886 15.5115 22.8833 15.5034C22.7913 15.2341 22.717 14.9702 22.6602 14.7143C22.5926 14.4127 22.5506 14.1218 22.5344 13.843C22.5033 13.3313 22.5547 12.8627 22.6967 12.4493C23.0361 11.4569 24.2085 10.5264 26.0977 9.69687C26.1977 9.65378 26.2978 9.60934 26.4019 9.56625C26.6372 9.46794 26.8833 9.37099 27.1403 9.27538C27.2349 9.24037 27.3323 9.20401 27.4297 9.169C27.692 9.07474 27.9652 8.98317 28.2478 8.8916C28.337 8.86332 28.4263 8.83504 28.5182 8.80676C29.7718 8.4176 31.2066 8.05805 32.8077 7.73487C33.1674 7.66215 33.5352 7.59213 33.9125 7.52345C34.279 7.45612 34.6535 7.39149 35.0349 7.3282C36.9375 7.01175 39.0295 6.74108 41.2892 6.52293C41.4893 6.50408 41.6922 6.4933 41.8937 6.4933C43.4866 6.4933 45.0039 7.0912 46.1655 8.17655C54.0263 15.5169 58.1738 21.4971 57.2596 24.1701ZM55.3313 29.8097C54.4252 32.4598 49.6436 34.3841 43.964 34.3841C40.9944 34.3841 37.8923 33.8643 34.993 32.8813C32.5778 32.0625 30.3033 30.9314 28.2789 29.5673C27.9882 29.3707 27.7001 29.1714 27.4202 28.9654C27.147 28.7647 26.8779 28.56 26.6142 28.3513C26.1396 27.9729 25.6852 27.5811 25.2498 27.1757C24.9983 26.9428 24.7535 26.7044 24.5155 26.462C24.2775 26.2196 24.0449 25.9746 23.8218 25.7254C23.7744 25.6729 23.7258 25.6218 23.6798 25.5692C23.4107 25.2622 23.1578 24.9538 22.9212 24.6468C22.7264 24.3937 22.5425 24.1405 22.3708 23.8873C22.195 23.6288 22.0314 23.3716 21.8813 23.1171C20.744 21.1955 20.3221 19.3883 20.767 18.0875C20.9455 17.5664 21.2254 17.0937 21.5905 16.6655C21.746 17.0399 21.9259 17.4183 22.1328 17.8007C21.8664 19.5715 22.2247 21.3261 23.1862 22.9999C23.3309 23.2517 23.4891 23.5022 23.6609 23.75C23.8326 23.9978 24.0192 24.2442 24.2193 24.4879C24.4465 24.7667 24.6913 25.0427 24.955 25.3147C25.0294 25.3915 25.1051 25.4682 25.1822 25.5437C25.4215 25.7807 25.6744 26.015 25.9381 26.2452C26.1964 26.4715 26.4682 26.6937 26.7495 26.9118C27.1957 27.2579 27.6704 27.5959 28.1734 27.9231C28.4587 28.1089 28.7522 28.2921 29.0551 28.4725C29.358 28.653 29.6717 28.8294 29.9922 29.0031C31.6258 29.8891 33.4771 30.6863 35.5095 31.3758C38.9579 32.546 42.2723 33.1641 45.0918 33.1641C49.5449 33.1641 52.7903 31.6195 54.4063 28.7809C54.8106 28.6018 55.1933 28.4092 55.553 28.2032C55.5747 28.758 55.5071 29.2953 55.3313 29.8097ZM1.62274 19.7061C1.62274 19.1554 1.73498 18.6181 1.94187 18.0943C2.20963 18.3986 2.50442 18.6989 2.82221 18.9951C3.29551 21.59 5.03589 23.7177 7.92572 25.203C10.917 26.7408 15.0495 27.5528 19.8785 27.5528C21.0212 27.5528 22.1233 27.5056 23.1821 27.4154C23.6284 27.8773 24.099 28.3271 24.5912 28.7607C23.1037 29.0058 21.527 29.1418 19.8785 29.1418C9.28882 29.1431 1.62274 23.5062 1.62274 19.7061ZM1.62274 13.7474C1.62274 10.9236 7.48487 6.5943 17.3038 2.16937C18.1192 1.80175 18.9847 1.61592 19.8799 1.61592C20.7737 1.61592 21.6405 1.80175 22.456 2.16937C25.7177 3.63986 28.5426 5.09957 30.8617 6.49734C29.2823 6.86631 27.7934 7.29722 26.475 7.80085C26.3478 7.84933 26.2221 7.89915 26.099 7.94898C25.8854 8.03516 25.6771 8.12269 25.4743 8.21291C25.3336 8.27486 25.1957 8.33815 25.0605 8.40144C24.8847 8.48493 24.7129 8.57111 24.5452 8.65729C24.3978 8.73405 24.2559 8.81215 24.1152 8.8916C22.625 9.73726 21.5675 10.7391 21.1618 11.9268C20.8589 12.8116 20.8278 13.8255 21.0469 14.9122C20.176 15.6879 19.5729 16.5699 19.2321 17.5677C18.6953 19.1379 19.0104 21.1093 20.0705 23.1858C20.007 23.1858 19.9448 23.1871 19.8812 23.1871C13.0779 23.1871 7.48217 20.8615 4.34893 18.1899C4.04467 17.93 3.7634 17.6674 3.50646 17.4035C3.24818 17.1368 3.01423 16.8689 2.80598 16.6022C2.80057 16.5955 2.79516 16.5874 2.78975 16.5807C2.61531 16.3545 2.4598 16.1296 2.32322 15.906C2.1623 15.6421 2.02842 15.3795 1.92159 15.1223C1.72551 14.6456 1.62274 14.1851 1.62274 13.7474ZM26.6196 23.2087C26.8698 23.4281 27.1254 23.6436 27.3877 23.855C27.7758 24.1688 28.1748 24.4718 28.5859 24.7667C28.8617 24.9646 29.1416 25.1599 29.427 25.3497C29.7069 25.5356 29.9895 25.7187 30.2776 25.8951C30.6846 26.1456 31.0984 26.388 31.5217 26.6196C31.8083 26.7771 32.0977 26.9307 32.3912 27.0788C32.6873 27.2296 32.9875 27.375 33.2891 27.5164C34.2965 27.9864 35.3351 28.4092 36.3993 28.7701C39.465 29.8097 42.7483 30.3591 45.8937 30.3591C47.914 30.3591 49.8031 30.1423 51.484 29.7437C49.6774 31.1751 47.1851 31.5468 45.0904 31.5468C42.4454 31.5468 39.3135 30.9583 36.0315 29.8447C34.6441 29.3747 33.2661 28.8172 31.9612 28.183C31.6474 28.0308 31.3378 27.8733 31.0335 27.713C30.7333 27.5541 30.4371 27.3898 30.1477 27.2229C29.688 26.9562 29.2431 26.6802 28.8157 26.3947C28.525 26.1994 28.2424 25.9988 27.9692 25.7941C27.6907 25.5854 27.4215 25.3726 27.1646 25.1545C26.7819 24.8313 26.4249 24.4987 26.095 24.1553C25.8745 23.9264 25.6663 23.6934 25.4716 23.4551C25.2809 23.2221 25.1024 22.9838 24.9388 22.7427C24.4208 21.9806 24.0449 21.1793 23.8434 20.3431C24.0179 20.5599 24.1991 20.7753 24.3884 20.9908C24.8617 21.5294 25.3688 22.0492 25.9029 22.5542C26.1355 22.7777 26.3749 22.9945 26.6196 23.2087ZM21.8339 25.887C21.1821 25.9207 20.529 25.9382 19.8785 25.9382C13.9055 25.9382 7.60793 24.5418 5.26308 20.8575C5.49837 21.0056 5.74043 21.1524 5.98925 21.2951C9.91763 23.5561 14.8494 24.8017 19.8785 24.8017C20.2585 24.8017 20.6372 24.7922 21.0144 24.7788C21.2673 25.1464 21.5405 25.5167 21.8339 25.887Z" fill="#E1A772"/>
</g>
<defs>
<clipPath id="clip0_1_1401">
<rect width="59" height="36" fill="white"/>
</clipPath>
</defs>
</svg>
