<svg width="20" height="20" viewBox="0 0 20 20" fill="none" xmlns="http://www.w3.org/2000/svg">
<path d="M13.8266 20C13.6818 20 13.5359 19.9861 13.3906 19.9577C13.3866 19.9571 13.3827 19.9566 13.3787 19.9559C13.1684 19.9198 8.1849 19.0293 4.43789 15.2892C1.41731 12.2742 0.398425 8.40415 0.0979173 6.85645C0.0418702 6.67235 0.00967292 6.48042 0.00231922 6.28541C3.36123e-05 6.26368 -0.000562634 6.24196 0.000530483 6.22034C-0.00483573 5.61239 0.227899 5.04293 0.657891 4.61372L1.93167 3.34228C2.0062 3.26788 2.10736 3.22602 2.2127 3.22602C2.31804 3.22602 2.4192 3.26788 2.49373 3.34228L6.61568 7.45677C6.771 7.6117 6.771 7.86296 6.61568 8.0178L5.3421 9.28924C5.3096 9.32168 5.27691 9.35242 5.24352 9.38198C4.64856 9.90929 4.53319 10.8328 4.9758 11.5295C5.40103 12.1987 5.8821 12.8029 6.4055 13.3254C7.0255 13.9441 7.76116 14.5048 8.59183 14.9913C9.27126 15.3893 10.1448 15.2617 10.7164 14.6811L10.7302 14.6672L12.0039 13.3959C12.1593 13.2409 12.4108 13.2409 12.566 13.3959L16.688 17.5103C16.8433 17.6652 16.8433 17.9165 16.688 18.0713L15.4143 19.3428C14.9878 19.7686 14.417 20 13.8266 20ZM13.4942 19.1704C13.5051 19.1717 13.516 19.1734 13.5269 19.1757C14.0095 19.2757 14.505 19.1283 14.8522 18.7818L15.8448 17.791L12.285 14.2377L11.2809 15.24C10.4559 16.0779 9.18361 16.2582 8.18957 15.676C7.30056 15.1553 6.51123 14.5533 5.84354 13.8867C5.27889 13.3231 4.76105 12.6732 4.30463 11.9546C3.65562 10.9329 3.8326 9.57164 4.71654 8.78812C4.73899 8.76848 4.76006 8.74844 4.78073 8.72781L5.77288 7.73748L2.2128 4.18392L1.22005 5.17475C0.938624 5.45576 0.787972 5.83031 0.795723 6.22986C0.796022 6.23422 0.79622 6.23849 0.79632 6.24285C0.800295 6.37934 0.822753 6.51315 0.863099 6.64041C0.86767 6.65499 0.871447 6.66997 0.874328 6.68505C1.15566 8.14605 2.12088 11.8542 5.00005 14.7282C8.45649 18.1783 13.1539 19.107 13.4942 19.1704ZM19.6025 11.0048C19.383 11.0048 19.205 10.8271 19.205 10.608C19.205 5.19638 14.7942 0.793537 9.37252 0.793537C9.153 0.793537 8.97502 0.615884 8.97502 0.396768C8.97502 0.177653 9.153 0 9.37252 0C15.2326 0 20 4.75874 20 10.608C20 10.8271 19.822 11.0048 19.6025 11.0048ZM17.136 11.0048C16.9165 11.0048 16.7385 10.8271 16.7385 10.608C16.7385 6.51871 13.4056 3.1919 9.30892 3.1919C9.0894 3.1919 8.91142 3.01425 8.91142 2.79513C8.91142 2.57602 9.0894 2.39837 9.30892 2.39837C13.844 2.39837 17.5335 6.08117 17.5335 10.608C17.5335 10.8271 17.3556 11.0048 17.136 11.0048ZM14.6757 11.0048C14.4562 11.0048 14.2782 10.8271 14.2782 10.608C14.2782 7.87297 12.049 5.6478 9.30892 5.6478C9.0894 5.6478 8.91142 5.47015 8.91142 5.25103C8.91142 5.03192 9.0894 4.85426 9.30892 4.85426C12.4873 4.85426 15.0732 7.43534 15.0732 10.608C15.0732 10.8271 14.8952 11.0048 14.6757 11.0048Z" fill="#E1A772"/>
</svg>
