<svg width="61" height="47" viewBox="0 0 61 47" fill="none" xmlns="http://www.w3.org/2000/svg">
<path d="M14.234 0.933594C6.37271 0.933594 0 7.3081 0 15.1721C0 23.0333 6.37271 29.4078 14.234 29.4078C14.234 29.4078 14.1651 34.6967 9.86842 42.3089C9.39114 43.8341 10.2419 45.4584 11.7681 45.9329C12.851 46.2735 13.9904 45.9424 14.7263 45.1717C24.606 34.3656 28.4733 21.6476 28.4733 15.1721C28.4733 7.3081 22.1007 0.933594 14.234 0.933594Z" fill="#2A3034"/>
<path d="M46.7613 0.933594C38.9001 0.933594 32.5273 7.30821 32.5273 15.1721C32.5273 23.0333 38.9001 29.4078 46.7613 29.4078C46.7613 29.4078 46.6924 34.6967 42.3958 42.3089C41.9185 43.8341 42.7694 45.4584 44.2955 45.9329C45.3783 46.2735 46.5178 45.9424 47.2535 45.1717C57.1333 34.3656 61.0008 21.6476 61.0008 15.1721C61.0008 7.3081 54.628 0.933594 46.7613 0.933594Z" fill="#2A3034"/>
</svg>
