<svg width="64" height="56" viewBox="0 0 64 56" fill="none" xmlns="http://www.w3.org/2000/svg">
<path d="M19.617 26.8331H4.76536C5.0187 12.0449 7.93203 9.60654 17.0204 4.22321C18.0654 3.58987 18.4137 2.25987 17.7804 1.18321C17.1787 0.138206 15.817 -0.210127 14.772 0.423206C4.0687 6.75654 0.332031 10.6199 0.332031 29.0181V46.0864C0.332031 51.5014 4.7337 55.8714 10.117 55.8714H19.617C25.1904 55.8714 29.402 51.6597 29.402 46.0864V36.5864C29.402 31.0447 25.1904 26.8331 19.617 26.8331Z" fill="white" fill-opacity="0.23"/>
<path d="M53.8792 26.8331H39.0275C39.2808 12.0449 42.1942 9.60654 51.2825 4.22321C52.3275 3.58987 52.6758 2.25987 52.0425 1.18321C51.4092 0.138206 50.0792 -0.210127 49.0025 0.423206C38.2992 6.75654 34.5625 10.6199 34.5625 29.0497V46.1181C34.5625 51.5331 38.9642 55.9031 44.3475 55.9031H53.8475C59.4208 55.9031 63.6325 51.6914 63.6325 46.1181V36.6181C63.6642 31.0447 59.4525 26.8331 53.8792 26.8331Z" fill="white" fill-opacity="0.23"/>
</svg>
