<svg width="21" height="21" viewBox="0 0 21 21" fill="none" xmlns="http://www.w3.org/2000/svg">
<path d="M20.735 19.496L14.7097 13.4665C15.8976 12.042 16.612 10.2215 16.612 8.2332C16.612 3.69708 12.8893 0.00878906 8.31012 0.00878906C3.73096 0.00878906 -0.000366211 3.70138 -0.000366211 8.2375C-0.000366211 12.7736 3.72235 16.4619 8.30151 16.4619C10.2468 16.4619 12.0371 15.7948 13.4574 14.6802L19.5041 20.7269C19.857 21.0798 20.382 21.0798 20.735 20.7269C21.0879 20.374 21.0879 19.8489 20.735 19.496ZM1.76416 8.2375C1.76416 4.67402 4.6993 1.77762 8.30151 1.77762C11.9037 1.77762 14.8389 4.67402 14.8389 8.2375C14.8389 11.801 11.9037 14.6974 8.30151 14.6974C4.6993 14.6974 1.76416 11.7967 1.76416 8.2375Z" fill="#D1D1D1"/>
</svg>
