<svg width="15" height="14" viewBox="0 0 15 14" fill="none" xmlns="http://www.w3.org/2000/svg">
<path d="M5.38412 2.60557C6.30532 1.09073 6.7659 0.333313 7.45455 0.333313C8.14321 0.333313 8.60379 1.09073 9.52495 2.60556L9.76328 2.99747C10.0251 3.42793 10.1559 3.64317 10.3601 3.78519C10.5642 3.9272 10.8183 3.97991 11.3266 4.08535L11.7895 4.18133C13.5783 4.55235 14.4727 4.73786 14.6855 5.36513C14.8983 5.99238 14.2886 6.64605 13.069 7.95325L12.7535 8.29145C12.407 8.66291 12.2337 8.84865 12.1557 9.07845C12.0778 9.30825 12.104 9.55605 12.1564 10.0517L12.2041 10.5029C12.3884 12.247 12.4807 13.1191 11.9236 13.5068C11.3664 13.8944 10.529 13.541 8.85405 12.8341L8.42074 12.6512C7.94481 12.4503 7.70685 12.3498 7.45455 12.3498C7.20226 12.3498 6.9643 12.4503 6.48837 12.6512L6.05506 12.8341C4.38014 13.541 3.54268 13.8944 2.98557 13.5068C2.42846 13.1191 2.52065 12.247 2.70503 10.5029L2.75272 10.0517C2.80512 9.55605 2.83132 9.30825 2.75336 9.07845C2.67541 8.84865 2.50214 8.66291 2.15559 8.29145L1.84008 7.95325C0.620553 6.64605 0.0107856 5.99238 0.223586 5.36513C0.436386 4.73786 1.33081 4.55235 3.11967 4.18133L3.58247 4.08535C4.09081 3.97991 4.34498 3.9272 4.54906 3.78519C4.75314 3.64317 4.88403 3.42794 5.1458 2.99747L5.38412 2.60557Z" fill="#FF9C07"/>
</svg>
