<svg width="18" height="20" viewBox="0 0 18 20" fill="none" xmlns="http://www.w3.org/2000/svg">
<path d="M8.92715 10.7766C8.94786 10.7766 8.96857 10.7766 8.99342 10.7766C9.0017 10.7766 9.00998 10.7766 9.01827 10.7766C9.03069 10.7766 9.04726 10.7766 9.05968 10.7766C10.2732 10.7559 11.2548 10.3293 11.9795 9.51336C13.5741 7.71588 13.309 4.6345 13.28 4.34044C13.1765 2.13295 12.1328 1.07683 11.2713 0.583972C10.6294 0.215366 9.87973 0.0165666 9.04312 0H9.01413C9.00998 0 9.0017 0 8.99756 0H8.97271C8.51299 0 7.61011 0.0745496 6.7445 0.567405C5.87476 1.06026 4.8145 2.11638 4.71096 4.34044C4.68197 4.6345 4.4169 7.71588 6.01143 9.51336C6.73208 10.3293 7.71365 10.7559 8.92715 10.7766ZM5.81678 4.44398C5.81678 4.43156 5.82092 4.41913 5.82092 4.41085C5.95759 1.44129 8.06569 1.12239 8.96857 1.12239H8.98513C8.99342 1.12239 9.00584 1.12239 9.01827 1.12239C10.1365 1.14724 12.0375 1.60282 12.1659 4.41085C12.1659 4.42328 12.1659 4.4357 12.1701 4.44398C12.1742 4.47298 12.4641 7.28929 11.1471 8.772C10.6252 9.36012 9.92943 9.65003 9.01413 9.65831C9.00584 9.65831 9.0017 9.65831 8.99342 9.65831C8.98513 9.65831 8.98099 9.65831 8.97271 9.65831C8.06155 9.65003 7.36161 9.36012 6.8439 8.772C5.531 7.29758 5.81263 4.46883 5.81678 4.44398Z" fill="#D1D1D1"/>
<path d="M17.5045 15.8872C17.5045 15.8831 17.5045 15.8789 17.5045 15.8748C17.5045 15.8416 17.5004 15.8085 17.5004 15.7712C17.4755 14.9512 17.4217 13.0336 15.6242 12.4206C15.6118 12.4165 15.5952 12.4124 15.5828 12.4082C13.7149 11.9319 12.1618 10.8551 12.1452 10.8427C11.8926 10.6646 11.5447 10.7267 11.3666 10.9793C11.1885 11.232 11.2506 11.5799 11.5033 11.758C11.5737 11.8077 13.2221 12.9549 15.2846 13.485C16.2496 13.8288 16.3573 14.8601 16.3863 15.8044C16.3863 15.8416 16.3863 15.8748 16.3904 15.9079C16.3946 16.2807 16.3697 16.8563 16.3034 17.1877C15.6325 17.5687 13.0025 18.8857 9.00172 18.8857C5.01746 18.8857 2.37094 17.5646 1.69586 17.1835C1.62959 16.8522 1.6006 16.2765 1.60888 15.9038C1.60888 15.8706 1.61302 15.8375 1.61302 15.8002C1.64201 14.8559 1.7497 13.8247 2.7147 13.4809C4.77724 12.9508 6.42561 11.7994 6.49602 11.7538C6.74866 11.5757 6.81079 11.2278 6.6327 10.9752C6.45461 10.7226 6.10671 10.6604 5.85407 10.8385C5.8375 10.851 4.29267 11.9278 2.4165 12.4041C2.39994 12.4082 2.38751 12.4124 2.37509 12.4165C0.577612 13.0336 0.523771 14.9512 0.498921 15.7671C0.498921 15.8044 0.498921 15.8375 0.49478 15.8706C0.49478 15.8748 0.49478 15.8789 0.49478 15.8831C0.490638 16.0984 0.486496 17.2042 0.706004 17.7592C0.74742 17.8669 0.82197 17.958 0.921369 18.0201C1.04562 18.103 4.02346 19.9998 9.00586 19.9998C13.9883 19.9998 16.9661 18.0988 17.0903 18.0201C17.1856 17.958 17.2643 17.8669 17.3057 17.7592C17.5128 17.2084 17.5087 16.1026 17.5045 15.8872Z" fill="#D1D1D1"/>
</svg>
