<svg width="212" height="12" viewBox="0 0 212 12" fill="none" xmlns="http://www.w3.org/2000/svg">
<path d="M212 6L202 0.226497V11.7735L212 6ZM0 7H2.03846V5H0V7ZM6.11538 7H10.1923V5H6.11538V7ZM14.2692 7H18.3462V5H14.2692V7ZM22.4231 7H26.5V5H22.4231V7ZM30.5769 7H34.6538V5H30.5769V7ZM38.7308 7H42.8077V5H38.7308V7ZM46.8846 7H50.9615V5H46.8846V7ZM55.0385 7H59.1154V5H55.0385V7ZM63.1923 7H67.2692V5H63.1923V7ZM71.3462 7H75.4231V5H71.3462V7ZM79.5 7H83.5769V5H79.5V7ZM87.6538 7H91.7308V5H87.6538V7ZM95.8077 7H99.8846V5H95.8077V7ZM103.962 7H108.038V5H103.962V7ZM112.115 7H116.192V5H112.115V7ZM120.269 7H124.346V5H120.269V7ZM128.423 7H132.5V5H128.423V7ZM136.577 7H140.654V5H136.577V7ZM144.731 7H148.808V5H144.731V7ZM152.885 7H156.961V5H152.885V7ZM161.038 7H165.115V5H161.038V7ZM169.192 7H173.269V5H169.192V7ZM177.346 7H181.423V5H177.346V7ZM185.5 7H189.577V5H185.5V7ZM193.654 7H197.731V5H193.654V7ZM201.808 7H205.885V5H201.808V7Z" fill="white" fill-opacity="0.29"/>
</svg>
